<svg width="910" height="588" xmlns="http://www.w3.org/2000/svg" xmlns:xlink="http://www.w3.org/1999/xlink" overflow="hidden"><defs><clipPath id="clip0"><rect x="162" y="21" width="910" height="588"/></clipPath></defs><g clip-path="url(#clip0)" transform="translate(-162 -21)"><rect x="163.5" y="22.5001" width="908" height="586" stroke="#F2F2F2" stroke-width="1.33333" stroke-miterlimit="8"/><text fill="#FFFFFF" font-family="Yu Gothic,Yu Gothic_MSFontService,sans-serif" font-weight="700" font-size="53" transform="translate(359.439 130)">子どもカフェ幕張本郷</text><path d="M209 354.5C209 273.038 324.958 207 468 207 611.042 207 727 273.038 727 354.5 727 435.962 611.042 502 468 502 324.958 502 209 435.962 209 354.5Z" fill="#4472C4" fill-rule="evenodd" fill-opacity="0.501961"/><path d="M517 354.5C517 273.038 632.734 207 775.5 207 918.266 207 1034 273.038 1034 354.5 1034 435.962 918.266 502 775.5 502 632.734 502 517 435.962 517 354.5Z" fill="#ED7D31" fill-rule="evenodd" fill-opacity="0.501961"/><text fill="#FFFFFF" font-family="Yu Gothic,Yu Gothic_MSFontService,sans-serif" font-weight="700" font-size="37" transform="translate(280.994 367)">プレーパーク</text><text fill="#FFFFFF" font-family="Yu Gothic,Yu Gothic_MSFontService,sans-serif" font-weight="700" font-size="37" transform="translate(768.328 367)">子どもカフェ</text></g></svg>