<svg width="839" height="577" xmlns="http://www.w3.org/2000/svg" xmlns:xlink="http://www.w3.org/1999/xlink" overflow="hidden"><defs><filter id="fx0" x="-10%" y="-10%" width="120%" height="120%" filterUnits="userSpaceOnUse" primitiveUnits="userSpaceOnUse"><feComponentTransfer color-interpolation-filters="sRGB"><feFuncR type="discrete" tableValues="0 0"/><feFuncG type="discrete" tableValues="0 0"/><feFuncB type="discrete" tableValues="0 0"/><feFuncA type="linear" slope="0.631373" intercept="0"/></feComponentTransfer><feGaussianBlur stdDeviation="2 2"/></filter><filter id="fx1" x="-10%" y="-10%" width="120%" height="120%" filterUnits="userSpaceOnUse" primitiveUnits="userSpaceOnUse"><feComponentTransfer color-interpolation-filters="sRGB"><feFuncR type="discrete" tableValues="0 0"/><feFuncG type="discrete" tableValues="0 0"/><feFuncB type="discrete" tableValues="0 0"/><feFuncA type="linear" slope="0.631373" intercept="0"/></feComponentTransfer><feGaussianBlur stdDeviation="2 2"/></filter><filter id="fx2" x="-10%" y="-10%" width="120%" height="120%" filterUnits="userSpaceOnUse" primitiveUnits="userSpaceOnUse"><feComponentTransfer color-interpolation-filters="sRGB"><feFuncR type="discrete" tableValues="0 0"/><feFuncG type="discrete" tableValues="0 0"/><feFuncB type="discrete" tableValues="0 0"/><feFuncA type="linear" slope="0.4" intercept="0"/></feComponentTransfer><feGaussianBlur stdDeviation="0.919979 0.919979"/></filter><clipPath id="clip3"><rect x="208" y="62" width="839" height="577"/></clipPath><radialGradient cx="3986213" cy="2747962" r="4841610" fx="3986212" gradientUnits="userSpaceOnUse" spreadMethod="pad" id="fill4" gradientTransform="matrix(0.000104987 0 0 0.000104987 209 62)"><stop offset="0" stop-color="#595959"/><stop offset="0.02" stop-color="#585858"/><stop offset="0.04" stop-color="#585858"/><stop offset="0.06" stop-color="#585858"/><stop offset="0.08" stop-color="#585858"/><stop offset="0.1" stop-color="#585858"/><stop offset="0.12" stop-color="#585858"/><stop offset="0.14" stop-color="#575757"/><stop offset="0.16" stop-color="#575757"/><stop offset="0.18" stop-color="#565656"/><stop offset="0.2" stop-color="#565656"/><stop offset="0.22" stop-color="#565656"/><stop offset="0.24" stop-color="#555555"/><stop offset="0.26" stop-color="#545454"/><stop offset="0.28" stop-color="#545454"/><stop offset="0.3" stop-color="#535353"/><stop offset="0.32" stop-color="#525252"/><stop offset="0.34" stop-color="#525252"/><stop offset="0.36" stop-color="#515151"/><stop offset="0.38" stop-color="#505050"/><stop offset="0.4" stop-color="#4F4F4F"/><stop offset="0.42" stop-color="#4E4E4E"/><stop offset="0.44" stop-color="#4E4E4E"/><stop offset="0.46" stop-color="#4D4D4D"/><stop offset="0.48" stop-color="#4C4C4C"/><stop offset="0.5" stop-color="#4B4B4B"/><stop offset="0.52" stop-color="#4A4A4A"/><stop offset="0.54" stop-color="#484848"/><stop offset="0.56" stop-color="#474747"/><stop offset="0.58" stop-color="#464646"/><stop offset="0.6" stop-color="#454545"/><stop offset="0.62" stop-color="#444444"/><stop offset="0.64" stop-color="#424242"/><stop offset="0.66" stop-color="#414141"/><stop offset="0.68" stop-color="#404040"/><stop offset="0.7" stop-color="#3E3E3E"/><stop offset="0.72" stop-color="#3D3D3D"/><stop offset="0.74" stop-color="#3C3C3C"/><stop offset="0.76" stop-color="#3A3A3A"/><stop offset="0.78" stop-color="#383838"/><stop offset="0.8" stop-color="#373737"/><stop offset="0.82" stop-color="#353535"/><stop offset="0.84" stop-color="#343434"/><stop offset="0.86" stop-color="#323232"/><stop offset="0.88" stop-color="#303030"/><stop offset="0.9" stop-color="#2F2F2F"/><stop offset="0.92" stop-color="#2D2D2D"/><stop offset="0.94" stop-color="#2B2B2B"/><stop offset="0.96" stop-color="#292929"/><stop offset="0.98" stop-color="#272727"/><stop offset="1" stop-color="#262626"/></radialGradient><clipPath id="clip5"><rect x="208" y="62" width="838" height="576"/></clipPath><clipPath id="clip6"><rect x="-2" y="-2" width="79" height="208"/></clipPath><clipPath id="clip7"><rect x="0" y="0" width="76" height="205"/></clipPath><clipPath id="clip8"><rect x="208" y="62" width="838" height="576"/></clipPath><clipPath id="clip9"><rect x="-2" y="-2" width="400" height="400"/></clipPath><clipPath id="clip10"><rect x="0" y="0" width="397" height="396"/></clipPath><clipPath id="clip11"><rect x="208" y="62" width="838" height="576"/></clipPath><linearGradient x1="658.586" y1="165.769" x2="658.586" y2="356.904" gradientUnits="userSpaceOnUse" spreadMethod="reflect" id="fill12"><stop offset="0" stop-color="#A4C1E4"/><stop offset="0.5" stop-color="#94B8E3"/><stop offset="1" stop-color="#7EA3CE"/></linearGradient><clipPath id="clip13"><rect x="208" y="62" width="838" height="576"/></clipPath><linearGradient x1="627.556" y1="165.769" x2="627.556" y2="548.091" gradientUnits="userSpaceOnUse" spreadMethod="reflect" id="fill14"><stop offset="0" stop-color="#6896C4"/><stop offset="0.5" stop-color="#4A89C2"/><stop offset="1" stop-color="#3B79B2"/></linearGradient><clipPath id="clip15"><rect x="208" y="62" width="838" height="576"/></clipPath><clipPath id="clip16"><rect x="208" y="62" width="838" height="576"/></clipPath><clipPath id="clip17"><rect x="208" y="62" width="838" height="576"/></clipPath><clipPath id="clip18"><rect x="208" y="62" width="838" height="576"/></clipPath><clipPath id="clip19"><rect x="27" y="22" width="417" height="32"/></clipPath><clipPath id="clip20"><rect x="0" y="0" width="471" height="91"/></clipPath><clipPath id="clip21"><rect x="208" y="62" width="838" height="576"/></clipPath><linearGradient x1="498" y1="604" x2="498" y2="618" gradientUnits="userSpaceOnUse" spreadMethod="reflect" id="fill22"><stop offset="0" stop-color="#A4C1E4"/><stop offset="0.5" stop-color="#94B8E3"/><stop offset="1" stop-color="#7EA3CE"/></linearGradient><clipPath id="clip23"><rect x="208" y="62" width="838" height="576"/></clipPath><clipPath id="clip24"><rect x="208" y="62" width="838" height="576"/></clipPath><linearGradient x1="663.5" y1="604" x2="663.5" y2="618" gradientUnits="userSpaceOnUse" spreadMethod="reflect" id="fill25"><stop offset="0" stop-color="#6896C4"/><stop offset="0.5" stop-color="#4A89C2"/><stop offset="1" stop-color="#3B79B2"/></linearGradient><clipPath id="clip26"><rect x="208" y="62" width="838" height="576"/></clipPath></defs><g clip-path="url(#clip3)" transform="translate(-208 -62)"><rect x="209" y="62" width="837" height="577" fill="url(#fill4)"/><g clip-path="url(#clip5)"><g clip-path="url(#clip6)" filter="url(#fx0)" transform="translate(621 161)"><g clip-path="url(#clip7)"><path d="M6.55559 6.76924C27.6728 6.76924 48.644 10.2687 68.617 17.1255L6.55559 197.904Z" fill="#FF0000" fill-rule="evenodd"/></g></g></g><g clip-path="url(#clip8)"><g clip-path="url(#clip9)" filter="url(#fx1)" transform="translate(429 161)"><g clip-path="url(#clip10)"><path d="M260.617 17.1253C360.458 51.4009 413.61 160.124 379.334 259.965 345.059 359.807 236.336 412.958 136.494 378.683 36.6531 344.407-16.4985 235.684 17.7771 135.843 44.286 58.6246 116.914 6.76911 198.556 6.76911L198.556 197.904Z" fill="#FF0000" fill-rule="evenodd"/></g></g></g><g clip-path="url(#clip11)"><path d="M627.556 165.769C648.673 165.769 669.644 169.269 689.617 176.125L627.556 356.904Z" fill="url(#fill12)" fill-rule="evenodd"/></g><g clip-path="url(#clip13)"><path d="M689.617 176.125C789.458 210.401 842.61 319.124 808.334 418.965 774.059 518.807 665.336 571.958 565.494 537.683 465.653 503.407 412.502 394.684 446.777 294.843 473.286 217.625 545.914 165.769 627.556 165.769L627.556 356.904Z" fill="url(#fill14)" fill-rule="evenodd"/></g><g clip-path="url(#clip15)"><path d="M659.5 168.5 872.5 125.5 878.5 125.5" stroke="#F2F2F2" stroke-linejoin="round" stroke-miterlimit="10" stroke-opacity="0.541176" fill="none"/></g><g clip-path="url(#clip16)"><text fill="#D9D9D9" font-family="Yu Gothic,Yu Gothic_MSFontService,sans-serif" font-weight="700" font-size="48" transform="translate(879.889 135)">5%</text></g><g clip-path="url(#clip17)"><text fill="#D9D9D9" font-family="Yu Gothic,Yu Gothic_MSFontService,sans-serif" font-weight="700" font-size="48" transform="translate(519.889 485)">95%</text></g><g clip-path="url(#clip18)"><g clip-path="url(#clip19)" filter="url(#fx2)" transform="translate(392 59)"><g clip-path="url(#clip20)"><path d="M3.13086-19.1816C4.30664-19.054 6.09766-18.9902 8.50391-18.9902L18.498-18.9902C19.1999-18.9902 19.7148-19.0859 20.043-19.2773 20.207-19.3867 20.3665-19.4414 20.5215-19.4414 20.7038-19.4414 20.8587-19.3776 20.9863-19.25 21.8249-18.5755 22.4629-17.9284 22.9004-17.3086 23.0462-17.1081 23.1191-16.9258 23.1191-16.7617 23.1191-16.5885 23.028-16.4108 22.8457-16.2285 22.6543-16.0371 22.4355-15.668 22.1895-15.1211 20.6855-11.4935 18.8763-8.45833 16.7617-6.01562 14.2461-3.14453 11.5983-0.920573 8.81836 0.65625 8.56315 0.820312 8.30794 0.902344 8.05273 0.902344 7.79753 0.902344 7.5651 0.797526 7.35547 0.587891 6.77213 0.0319011 5.90625-0.478516 4.75781-0.943359 6.91797-2.03711 8.72721-3.16276 10.1855-4.32031 11.4525-5.33203 12.6921-6.53971 13.9043-7.94336 16.0098-10.3496 17.5911-13.0156 18.6484-15.9414L8.53125-15.9414C7.47396-15.9414 5.93359-15.8958 3.91016-15.8047 3.61849-15.7865 3.44076-15.9733 3.37695-16.3652 3.31315-16.8301 3.23112-17.7689 3.13086-19.1816ZM24.8555-24.3086C25.7578-24.3086 26.5052-23.9805 27.0977-23.3242 27.6172-22.7591 27.877-22.0892 27.877-21.3145 27.877-20.4121 27.5443-19.6647 26.8789-19.0723 26.3138-18.5618 25.6393-18.3066 24.8555-18.3066 23.9531-18.3066 23.2057-18.6348 22.6133-19.291 22.0938-19.8561 21.834-20.5306 21.834-21.3145 21.834-22.235 22.1667-22.9824 22.832-23.5566 23.3971-24.0579 24.0716-24.3086 24.8555-24.3086ZM24.8555-22.9688C24.3451-22.9688 23.9303-22.791 23.6113-22.4355 23.3379-22.1257 23.2012-21.752 23.2012-21.3145 23.2012-20.7949 23.3789-20.3757 23.7344-20.0566 24.0352-19.7832 24.4089-19.6465 24.8555-19.6465 25.3659-19.6465 25.7806-19.8242 26.0996-20.1797 26.373-20.4896 26.5098-20.8678 26.5098-21.3145 26.5098-21.8249 26.332-22.2396 25.9766-22.5586 25.6758-22.832 25.3021-22.9688 24.8555-22.9688ZM39.1949-4.89453C41.5009-5.79688 43.8798-6.97266 46.3317-8.42188 49.0569-10.0352 51.5315-11.9401 53.7555-14.1367 53.7828-12.8698 53.9332-11.7897 54.2067-10.8965 54.2614-10.7233 54.2887-10.5729 54.2887-10.4453 54.2887-10.1992 54.1656-9.97591 53.9196-9.77539 51.8505-8.02539 49.5172-6.42122 46.9196-4.96289 44.9235-3.77799 42.6403-2.62044 40.0699-1.49023 39.359-1.18034 38.8349-0.879557 38.4977-0.587891 38.3154-0.442057 38.1468-0.369141 37.9918-0.369141 37.8551-0.369141 37.6956-0.442057 37.5133-0.587891 36.8662-1.12565 36.2965-1.75911 35.8043-2.48828 35.6949-2.63411 35.6403-2.78451 35.6403-2.93945 35.6403-3.07617 35.6858-3.23568 35.777-3.41797 35.8499-3.60026 35.8864-4.13346 35.8864-5.01758L35.9547-15.5449C35.9547-17.6868 35.8499-19.3092 35.6403-20.4121 37.4723-20.1842 38.6845-19.9792 39.277-19.7969 39.5778-19.7057 39.7281-19.528 39.7281-19.2637 39.7281-19.1543 39.6826-18.9583 39.5914-18.6758 39.3818-18.0924 39.277-16.9349 39.277-15.2031ZM62.3528-12.291C63.8111-12.0632 65.8254-11.9492 68.3958-11.9492L77.4192-11.9492C78.3033-11.9492 79.4426-11.9629 80.8372-11.9902 82.6145-12.0176 83.6217-12.0358 83.8586-12.0449 83.9042-12.0449 83.9498-12.0449 83.9954-12.0449 84.2415-12.0449 84.3645-11.9128 84.3645-11.6484 84.3918-11.2201 84.4055-10.778 84.4055-10.3223 84.4055-9.87565 84.3918-9.43815 84.3645-9.00977 84.3645-8.72721 84.2323-8.58594 83.968-8.58594L83.8586-8.58594C81.0605-8.6224 78.9778-8.64062 77.6106-8.64062L67.5344-8.64062 63.4192-8.29883C63.0637-8.29883 62.8495-8.49479 62.7766-8.88672 62.6125-9.625 62.4713-10.7598 62.3528-12.291ZM90.3778-4.48438C93.0028-6.80859 95.0262-9.58854 96.4481-12.8242 97.2046-14.5195 97.6285-15.9004 97.7196-16.9668 99.2873-16.4108 100.44-15.9368 101.179-15.5449 101.406-15.4447 101.52-15.2943 101.52-15.0938 101.52-14.9023 101.425-14.7155 101.233-14.5332 100.969-14.2689 100.645-13.6992 100.263-12.8242 98.5399-8.94141 96.5438-5.80599 94.2743-3.41797 94.0191-3.13542 93.7548-2.99414 93.4813-2.99414 93.2717-2.99414 93.0575-3.08529 92.8388-3.26758 92.2281-3.75977 91.4078-4.16536 90.3778-4.48438ZM104.692-15.1211C105.002-15.3307 105.462-15.6452 106.073-16.0645 106.483-16.3379 106.766-16.5293 106.921-16.6387 107.067-16.748 107.199-16.8027 107.317-16.8027 107.445-16.8027 107.586-16.7298 107.741-16.584 110.63-13.6855 112.973-10.2585 114.768-6.30273 114.841-6.17513 114.878-6.04297 114.878-5.90625 114.878-5.74219 114.787-5.5918 114.604-5.45508 113.957-4.94466 113.182-4.45247 112.28-3.97852 112.143-3.91471 112.034-3.88281 111.952-3.88281 111.788-3.88281 111.669-3.99674 111.597-4.22461 109.619-8.69987 107.317-12.332 104.692-15.1211ZM113.333-21.5332C114.244-21.5332 114.996-21.2051 115.589-20.5488 116.108-19.9837 116.368-19.3138 116.368-18.5391 116.368-17.6367 116.035-16.8893 115.37-16.2969 114.796-15.7865 114.117-15.5312 113.333-15.5312 112.431-15.5312 111.683-15.8594 111.091-16.5156 110.571-17.0807 110.311-17.7552 110.311-18.5391 110.311-19.4596 110.644-20.2116 111.309-20.7949 111.875-21.2871 112.549-21.5332 113.333-21.5332ZM113.333-20.1934C112.822-20.1934 112.408-20.0156 112.089-19.6602 111.815-19.3503 111.679-18.9766 111.679-18.5391 111.679-18.0195 111.856-17.6003 112.212-17.2812 112.522-17.0078 112.895-16.8711 113.333-16.8711 113.852-16.8711 114.272-17.0488 114.591-17.4043 114.864-17.7142 115.001-18.0924 115.001-18.5391 115.001-19.0495 114.823-19.4642 114.468-19.7832 114.158-20.0566 113.78-20.1934 113.333-20.1934ZM121.766-12.291C123.224-12.0632 125.239-11.9492 127.809-11.9492L136.833-11.9492C137.717-11.9492 138.856-11.9629 140.25-11.9902 142.028-12.0176 143.035-12.0358 143.272-12.0449 143.318-12.0449 143.363-12.0449 143.409-12.0449 143.655-12.0449 143.778-11.9128 143.778-11.6484 143.805-11.2201 143.819-10.778 143.819-10.3223 143.819-9.87565 143.805-9.43815 143.778-9.00977 143.778-8.72721 143.646-8.58594 143.381-8.58594L143.272-8.58594C140.474-8.6224 138.391-8.64062 137.024-8.64062L126.948-8.64062 122.833-8.29883C122.477-8.29883 122.263-8.49479 122.19-8.88672 122.026-9.625 121.885-10.7598 121.766-12.291ZM162.602-17.8965 167.633-18.0059C168.253-18.0241 168.722-18.138 169.041-18.3477 169.132-18.4206 169.251-18.457 169.397-18.457 169.533-18.457 169.684-18.4023 169.848-18.293 170.486-17.8828 171.119-17.377 171.748-16.7754 171.994-16.5566 172.117-16.3424 172.117-16.1328 172.117-15.9323 172.003-15.7363 171.776-15.5449 171.429-15.2715 171.124-14.8704 170.86-14.3418 169.1-10.7689 167.25-7.88411 165.309-5.6875 164.033-4.2474 162.561-2.85742 160.893-1.51758 159.462-0.369141 158.099 0.565104 156.805 1.28516 156.659 1.3763 156.509 1.42188 156.354 1.42188 156.153 1.42188 155.939 1.32161 155.711 1.12109 155.009 0.565104 154.121 0.136719 153.045-0.164062 155.315-1.42187 157.169-2.61589 158.61-3.74609 159.804-4.70312 161.057-5.89258 162.369-7.31445 163.572-8.64518 164.557-9.91211 165.322-11.1152 166.033-12.2272 166.776-13.6081 167.551-15.2578L160.77-15.0664C158.527-12.2865 156.764-10.3724 155.479-9.32422 155.278-9.11458 155.082-9.00977 154.891-9.00977 154.754-9.00977 154.617-9.06445 154.481-9.17383 153.633-9.7845 152.735-10.1901 151.787-10.3906 154.914-12.9427 157.425-15.7135 159.32-18.7031 160.177-20.1615 160.729-21.4238 160.975-22.4902 162.561-21.9251 163.65-21.4284 164.242-21 164.434-20.8633 164.529-20.7038 164.529-20.5215 164.529-20.3301 164.425-20.1706 164.215-20.043 164.096-19.9701 163.864-19.7194 163.518-19.291 163.317-18.972 163.012-18.5072 162.602-17.8965ZM189.847-23.1055C191.16-22.8958 192.222-22.6315 193.033-22.3125 193.261-22.2305 193.375-22.071 193.375-21.834 193.375-21.6608 193.311-21.5241 193.183-21.4238 193.019-21.2871 192.86-21.0638 192.705-20.7539 192.668-20.6628 192.609-20.526 192.527-20.3438 192.363-19.9518 192.204-19.5827 192.049-19.2363 193.853-19.446 195.553-19.7376 197.148-20.1113 197.212-20.1204 197.267-20.125 197.312-20.125 197.458-20.125 197.554-20.0247 197.599-19.8242 197.763-19.1771 197.859-18.5072 197.886-17.8145 197.886-17.778 197.886-17.7507 197.886-17.7324 197.886-17.5319 197.727-17.4089 197.408-17.3633 195.23-17.0443 193.042-16.7617 190.845-16.5156 189.925-15.0391 189.228-14.0046 188.754-13.4121L188.781-13.3574C189.665-13.9316 190.599-14.2188 191.584-14.2188 193.598-14.2188 194.733-13.2116 194.988-11.1973 196.902-12.0814 198.278-12.7376 199.117-13.166 200.019-13.64 200.726-14.1413 201.236-14.6699 202.102-13.7585 202.758-12.9382 203.205-12.209 203.351-11.9811 203.424-11.776 203.424-11.5938 203.424-11.3841 203.282-11.252 203-11.1973 202.435-11.1152 201.865-10.974 201.291-10.7734 198.547-9.80729 196.542-9.06445 195.275-8.54492L195.275-4.0332C195.275-3.75065 195.097-3.58203 194.742-3.52734 194.131-3.4362 193.47-3.39062 192.76-3.39062 192.513-3.39062 192.39-3.54102 192.39-3.8418 192.39-5.44596 192.4-6.58073 192.418-7.24609 191.123-6.58073 190.217-5.92904 189.697-5.29102 189.26-4.76237 189.041-4.17448 189.041-3.52734 189.041-2.24219 190.335-1.59961 192.924-1.59961 194.956-1.59961 197.28-1.78646 199.896-2.16016 199.924-2.16016 199.951-2.16016 199.978-2.16016 200.161-2.16016 200.261-2.05534 200.279-1.8457 200.452-1.07096 200.539-0.305339 200.539 0.451172 200.539 0.496745 200.539 0.528646 200.539 0.546875 200.539 0.829427 200.434 0.970703 200.224 0.970703 198.329 1.2168 196.018 1.33984 193.293 1.33984 188.608 1.33984 186.265-0.200521 186.265-3.28125 186.265-4.71224 186.785-5.98372 187.824-7.0957 188.745-8.08008 190.194-9.08268 192.172-10.1035 192.126-10.86 191.985-11.375 191.748-11.6484 191.529-11.9128 191.164-12.0449 190.654-12.0449 190.618-12.0449 190.563-12.0449 190.49-12.0449 189.405-11.9993 188.116-11.3249 186.621-10.0215 185.755-9.17383 184.821-8.15755 183.818-6.97266 183.681-6.80859 183.567-6.72656 183.476-6.72656 183.403-6.72656 183.303-6.79036 183.176-6.91797 182.383-7.71094 181.849-8.32617 181.576-8.76367 181.503-8.86393 181.467-8.95052 181.467-9.02344 181.467-9.1237 181.53-9.22396 181.658-9.32422 184.201-11.5938 186.156-13.9089 187.523-16.2695 186.22-16.2148 184.725-16.1875 183.039-16.1875 182.829-16.1875 182.697-16.3379 182.642-16.6387 182.579-16.9941 182.487-17.7643 182.369-18.9492 183.262-18.9128 184.201-18.8945 185.185-18.8945 186.37-18.8945 187.578-18.9264 188.808-18.9902 189.146-19.8197 189.424-20.6217 189.642-21.3965 189.779-21.9525 189.847-22.5221 189.847-23.1055ZM225.447 1.20312 223.15 1.20312C223.004 1.20312 222.917 1.1849 222.89 1.14844 222.863 1.11198 222.849 1.02539 222.849 0.888672L222.904-7.5332 222.904-14.0547 222.849-20.5078C222.849-20.6901 222.954-20.7812 223.163-20.7812L226.212-20.7266 230.122-20.7266 233.171-20.7812C233.335-20.7812 233.436-20.763 233.472-20.7266 233.499-20.6992 233.513-20.6263 233.513-20.5078L233.458-14.9023 233.458-7.68359 233.513 0.587891C233.513 0.724609 233.495 0.808919 233.458 0.84082 233.422 0.872721 233.331 0.888672 233.185 0.888672L230.874 0.888672C230.729 0.888672 230.642 0.870443 230.615 0.833984 230.587 0.797526 230.574 0.715495 230.574 0.587891L230.574-1.09375 225.761-1.09375 225.761 0.888672C225.761 1.04362 225.743 1.13477 225.706 1.16211 225.67 1.18945 225.583 1.20312 225.447 1.20312ZM225.761-18.0332 225.761-3.81445 230.574-3.81445 230.574-18.0332ZM218.255-9.83008 217.298-9.83008C217.298-9.73893 217.28-9.61588 217.244-9.46094 218.483-6.98177 220.21-4.95833 222.425-3.39062 221.887-2.81641 221.45-2.13281 221.113-1.33984 220.949-0.966146 220.807-0.779297 220.689-0.779297 220.579-0.779297 220.384-0.920573 220.101-1.20312 218.524-2.78906 217.303-4.43425 216.437-6.13867 215.535-3.51367 213.921-1.13477 211.597 0.998047 211.342 1.22591 211.155 1.33984 211.037 1.33984 210.882 1.33984 210.686 1.16211 210.449 0.806641 210.02 0.132161 209.514-0.396484 208.931-0.779297 210.544-2.00065 211.793-3.32227 212.677-4.74414 213.397-5.91081 213.93-7.25065 214.277-8.76367 214.331-8.99154 214.4-9.347 214.482-9.83008L212.992-9.83008 209.628-9.77539C209.464-9.77539 209.369-9.79818 209.341-9.84375 209.314-9.88021 209.3-9.9668 209.3-10.1035L209.3-12.1543C209.3-12.2819 209.318-12.3594 209.355-12.3867 209.391-12.4141 209.482-12.4277 209.628-12.4277L212.992-12.373 214.783-12.373C214.856-13.2663 214.91-14.6973 214.947-16.666L213.292-16.666C212.818-15.8092 212.372-15.071 211.953-14.4512 211.734-14.0957 211.556-13.918 211.419-13.918 211.301-13.918 211.087-14.0592 210.777-14.3418 210.421-14.679 209.888-15.0117 209.177-15.3398 210.663-17.0716 211.766-19.1452 212.486-21.5605 212.632-22.0163 212.736-22.6133 212.8-23.3516 213.666-23.224 214.532-23.028 215.398-22.7637 215.717-22.6816 215.876-22.5495 215.876-22.3672 215.876-22.2487 215.794-22.0938 215.63-21.9023 215.348-21.5742 215.147-21.2279 215.029-20.8633 214.846-20.2891 214.65-19.7376 214.441-19.209L217.749-19.209 221.167-19.2637C221.331-19.2637 221.427-19.2454 221.454-19.209 221.491-19.1725 221.509-19.0905 221.509-18.9629L221.509-16.9121C221.509-16.7663 221.486-16.6797 221.441-16.6523 221.404-16.625 221.313-16.6113 221.167-16.6113L217.749-16.666C217.713-14.7428 217.658-13.3118 217.585-12.373L218.255-12.373 221.646-12.4277C221.846-12.4277 221.947-12.3366 221.947-12.1543L221.947-10.1035C221.947-9.94857 221.928-9.85286 221.892-9.81641 221.856-9.78906 221.773-9.77539 221.646-9.77539ZM241.96-10.8965C243.2-11.0879 244.653-11.4479 246.321-11.9766 249.748-13.1159 252.474-13.6855 254.497-13.6855 256.53-13.6855 258.143-13.0521 259.337-11.7852 260.367-10.6914 260.882-9.32878 260.882-7.69727 260.882-4.94466 259.547-2.85286 256.876-1.42188 255.053-0.410156 253.125 0.205078 251.093 0.423828 250.983 0.442057 250.888 0.451172 250.806 0.451172 250.532 0.451172 250.318 0.309896 250.163 0.0273438 249.808-0.610677 249.238-1.22591 248.454-1.81836 250.031-2.06445 251.298-2.32422 252.255-2.59766 253.212-2.87109 254.196-3.25391 255.208-3.74609 256.885-4.63021 257.724-6.02018 257.724-7.91602 257.724-9.9668 256.566-10.9922 254.251-10.9922 252.574-10.9922 249.931-10.2676 246.321-8.81836 245.692-8.53581 245.173-8.24414 244.763-7.94336 244.544-7.76107 244.357-7.66992 244.202-7.66992 243.993-7.66992 243.751-7.83854 243.478-8.17578 243.14-8.59505 242.634-9.50195 241.96-10.8965ZM269.999-17.8691C270.992-17.9056 272.478-18.0605 274.456-18.334 281.993-19.4368 287.599-20.2298 291.272-20.7129 291.336-20.722 291.391-20.7266 291.436-20.7266 291.691-20.7266 291.833-20.6217 291.86-20.4121 292.042-19.6009 292.147-18.776 292.174-17.9375 292.174-17.6641 291.997-17.5273 291.641-17.5273 290.374-17.4453 289.235-17.2402 288.223-16.9121 285.771-16.0736 283.912-14.8158 282.645-13.1387 281.606-11.7715 281.087-10.2767 281.087-8.6543 281.087-5.04492 283.57-3.08529 288.538-2.77539 288.948-2.77539 289.153-2.63411 289.153-2.35156 289.153-1.47656 289.048-0.674479 288.839 0.0546875 288.766 0.446615 288.592 0.642578 288.319 0.642578 285.384 0.642578 282.914-0.16862 280.909-1.79102 278.958-3.38607 277.983-5.45964 277.983-8.01172 277.983-10.0443 278.516-11.8398 279.583-13.3984 280.449-14.6471 281.706-15.8092 283.356-16.8848L283.356-16.9395C280.057-16.3197 276.921-15.7044 273.95-15.0938 272.984-14.8659 272.396-14.7155 272.186-14.6426 271.84-14.4967 271.635-14.4238 271.571-14.4238 271.334-14.4238 271.156-14.5651 271.038-14.8477 270.746-15.4492 270.4-16.4564 269.999-17.8691ZM300.348-19.4551C301.87-19.2728 303.055-18.9674 303.903-18.5391 304.203-18.4023 304.354-18.2337 304.354-18.0332 304.354-17.8691 304.276-17.6094 304.121-17.2539 303.957-16.7435 303.875-15.8275 303.875-14.5059 303.875-12.1816 304.044-10.0534 304.381-8.12109 304.864-5.3776 305.63-4.00586 306.678-4.00586 307.152-4.00586 307.603-4.33398 308.032-4.99023 308.414-5.57357 308.856-6.54427 309.358-7.90234 309.832-7.15495 310.429-6.4349 311.149-5.74219 311.34-5.56901 311.436-5.36849 311.436-5.14062 311.436-5.01302 311.408-4.86719 311.354-4.70312 310.789-3.19922 310.05-2.06901 309.139-1.3125 308.364-0.665365 307.517-0.341797 306.596-0.341797 305.356-0.341797 304.24-1.05273 303.246-2.47461 302.326-3.80534 301.697-5.52799 301.36-7.64258 300.913-10.304 300.69-13.0202 300.69-15.791 300.69-17.2038 300.576-18.4251 300.348-19.4551ZM314.69-15.4902C315.61-16.0736 316.344-16.502 316.891-16.7754 317.046-16.8483 317.151-16.8848 317.205-16.8848 317.297-16.8848 317.397-16.8301 317.506-16.7207 318.882-15.5267 320.09-13.9772 321.129-12.0723 322.05-10.4043 322.67-8.75911 322.989-7.13672 323.007-7.07292 323.016-7.01823 323.016-6.97266 323.016-6.80859 322.906-6.6582 322.688-6.52148 321.867-5.99284 321.138-5.61914 320.5-5.40039 320.409-5.37305 320.327-5.35938 320.254-5.35938 320.072-5.35938 319.958-5.47786 319.912-5.71484 319.393-7.91146 318.705-9.78906 317.848-11.3477 317.046-12.7969 315.993-14.1777 314.69-15.4902ZM339.625-6.15234C339.552-7.90234 339.506-9.01432 339.488-9.48828 338.704-9.47005 337.998-9.46094 337.369-9.46094 336.057-9.46094 334.84-9.51107 333.719-9.61133 333.445-9.61133 333.295-9.76628 333.267-10.0762 333.158-10.696 333.103-11.4889 333.103-12.4551 334.534-12.2819 336.038-12.1953 337.615-12.1953 338.198-12.1953 338.795-12.209 339.406-12.2363L339.351-15.4492C338.239-15.4128 337.301-15.3945 336.535-15.3945 335.077-15.3945 333.782-15.4583 332.652-15.5859 332.361-15.5859 332.201-15.7181 332.174-15.9824 332.092-16.666 332.028-17.5046 331.982-18.498 333.605-18.3158 336.052-18.2246 339.324-18.2246 339.324-18.7624 339.306-19.6693 339.269-20.9453 339.206-21.6745 339.092-22.2988 338.928-22.8184 340.45-22.7272 341.626-22.5586 342.455-22.3125 342.719-22.2305 342.851-22.0527 342.851-21.7793 342.851-21.6699 342.824-21.5697 342.769-21.4785 342.505-20.959 342.364-20.5078 342.346-20.125 342.336-19.9154 342.327-19.6328 342.318-19.2773 342.309-18.8672 342.3-18.5527 342.291-18.334 344.396-18.498 346.438-18.7806 348.416-19.1816 348.498-19.1999 348.566-19.209 348.621-19.209 348.785-19.209 348.876-19.0859 348.894-18.8398 348.986-18.1836 349.031-17.5046 349.031-16.8027 349.031-16.5293 348.931-16.3789 348.73-16.3516 346.698-16.0052 344.542-15.7637 342.264-15.627L342.291-12.4551C343.139-12.5098 344.966-12.7513 347.773-13.1797 347.874-13.207 347.951-13.2207 348.006-13.2207 348.133-13.2207 348.206-13.1341 348.225-12.9609 348.279-11.8945 348.307-11.1289 348.307-10.6641 348.307-10.4271 348.165-10.2949 347.883-10.2676 345.923-9.94857 344.096-9.72526 342.4-9.59766 342.482-7.71094 342.546-6.39388 342.592-5.64648 345.29-4.89909 347.764-3.77344 350.016-2.26953 350.18-2.1237 350.262-1.99154 350.262-1.87305 350.262-1.81836 350.243-1.72721 350.207-1.59961 349.924-0.815755 349.514-0.123047 348.976 0.478516 348.876 0.624349 348.758 0.697266 348.621 0.697266 348.503 0.697266 348.398 0.651693 348.307 0.560547 346.693-0.715495 344.838-1.77734 342.742-2.625 342.724-1.03906 342.186 0.0911459 341.129 0.765625 340.226 1.33984 338.868 1.62695 337.055 1.62695 335.141 1.62695 333.669 1.2168 332.639 0.396484 331.773-0.296224 331.34-1.18945 331.34-2.2832 331.34-3.52279 331.919-4.51628 333.076-5.26367 334.097-5.92904 335.387-6.26172 336.945-6.26172 337.857-6.26172 338.75-6.22526 339.625-6.15234ZM339.68-3.5C338.759-3.71875 337.893-3.82812 337.082-3.82812 335.068-3.82812 334.06-3.33594 334.06-2.35156 334.06-1.51302 334.986-1.09375 336.836-1.09375 338.094-1.09375 338.941-1.37174 339.379-1.92773 339.579-2.21029 339.68-2.73438 339.68-3.5ZM370.398-18.334C370.389-18.6074 370.38-19.0358 370.371-19.6191 370.362-20.0566 370.352-20.403 370.343-20.6582 370.289-21.36 370.175-22.0436 370.001-22.709 371.369-22.6178 372.462-22.4857 373.283-22.3125 373.802-22.2214 374.062-22.0436 374.062-21.7793 374.062-21.6335 373.98-21.4193 373.816-21.1367 373.716-20.9453 373.638-20.6764 373.584-20.3301 373.574-20.2116 373.556-19.6146 373.529-18.5391 376.035-18.6302 378.902-18.6758 382.128-18.6758 382.302-18.6758 382.411-18.6484 382.457-18.5938 382.502-18.5391 382.529-18.4251 382.539-18.252 382.557-17.8874 382.566-17.5319 382.566-17.1855 382.566-16.8392 382.557-16.4837 382.539-16.1191 382.539-15.873 382.42-15.75 382.183-15.75 382.147-15.75 382.11-15.75 382.074-15.75 380.378-15.8047 378.578-15.832 376.673-15.832 375.525-15.832 374.477-15.8275 373.529-15.8184 373.529-13.485 373.538-11.7487 373.556-10.6094 373.839-9.85286 373.98-8.92773 373.98-7.83398 373.98-3.98763 372.317-0.97526 368.99 1.20312 368.443 1.55859 368.078 1.73633 367.896 1.73633 367.695 1.73633 367.417 1.59505 367.062 1.3125 366.47 0.820312 365.759 0.451172 364.929 0.205078 366.634-0.551432 368.001-1.54036 369.031-2.76172 369.888-3.76432 370.434-4.83073 370.671-5.96094 370.161-5.21354 369.286-4.83984 368.046-4.83984 366.825-4.83984 365.854-5.26823 365.134-6.125 364.478-6.89974 364.15-7.90234 364.15-9.13281 364.15-10.4818 364.624-11.5527 365.572-12.3457 366.356-13.002 367.29-13.3301 368.375-13.3301 369.368-13.3301 370.079-13.1432 370.507-12.7695L370.48-15.627C366.433-15.3991 363.202-15.1165 360.787-14.7793 360.568-14.752 360.29-14.6836 359.953-14.5742 359.707-14.4922 359.547-14.4512 359.474-14.4512 359.237-14.4512 359.078-14.5833 358.996-14.8477 358.804-15.3307 358.572-16.2695 358.298-17.6641 358.581-17.6367 358.877-17.623 359.187-17.623 359.47-17.623 360.313-17.6732 361.716-17.7734 363.22-17.901 366.114-18.0879 370.398-18.334ZM368.607-11.1426C368.078-11.1426 367.636-10.974 367.281-10.6367 366.925-10.2995 366.748-9.86198 366.748-9.32422 366.748-8.6862 366.944-8.18945 367.335-7.83398 367.654-7.55143 368.056-7.41016 368.539-7.41016 369.131-7.41016 369.605-7.59245 369.96-7.95703 370.289-8.30338 370.453-8.76823 370.453-9.35156 370.453-9.95312 370.261-10.4134 369.878-10.7324 369.559-11.0059 369.136-11.1426 368.607-11.1426ZM395.538-15.6543C395.821-16.666 396.099-17.8418 396.372-19.1816 396.564-20.3027 396.659-21.3372 396.659-22.2852 398.027-21.9935 399.143-21.6882 400.009-21.3691 400.31-21.278 400.46-21.0911 400.46-20.8086 400.46-20.6536 400.396-20.5124 400.269-20.3848 400.041-20.0931 399.854-19.7376 399.708-19.3184 399.571-18.8991 399.394-18.3066 399.175-17.541 398.965-16.8392 398.806-16.3105 398.696-15.9551 399.38-16.0371 400.109-16.0781 400.884-16.0781 402.297-16.0781 403.345-15.5768 404.028-14.5742 404.639-13.6992 404.944-12.4733 404.944-10.8965 404.944-9.08268 404.794-7.31901 404.493-5.60547 404.22-4.05599 403.864-2.82096 403.427-1.90039 402.634-0.150391 401.376 0.724609 399.653 0.724609 398.45 0.724609 397.525 0.619792 396.878 0.410156 396.541 0.300781 396.372 0.0410156 396.372-0.369141 396.272-1.51758 396.099-2.38346 395.853-2.9668 396.937-2.55664 397.963-2.35156 398.929-2.35156 399.421-2.35156 399.799-2.47005 400.064-2.70703 400.291-2.92578 400.51-3.30404 400.72-3.8418 401.449-5.77409 401.814-8.08463 401.814-10.7734 401.814-11.8398 401.686-12.5508 401.431-12.9062 401.194-13.2253 400.788-13.3848 400.214-13.3848 399.594-13.3848 398.81-13.321 397.862-13.1934 396.03-7.86133 394.153-3.47266 392.23-0.0273438 392.129 0.200521 391.993 0.314453 391.819 0.314453 391.728 0.314453 391.624 0.282552 391.505 0.21875 390.639-0.200521 389.992-0.610677 389.564-1.01172 389.418-1.15755 389.345-1.29427 389.345-1.42188 389.345-1.53125 389.381-1.63607 389.454-1.73633 391.669-5.57357 393.378-9.23307 394.581-12.7148 393.943-12.6146 393.032-12.4551 391.847-12.2363 391.346-12.1361 390.831-11.9857 390.302-11.7852 390.174-11.7396 390.06-11.7168 389.96-11.7168 389.696-11.7168 389.509-11.8626 389.4-12.1543 389.135-12.847 388.848-13.8086 388.538-15.0391 389.568-15.0391 390.799-15.1029 392.23-15.2305 393.241-15.3307 394.344-15.472 395.538-15.6543ZM405.505-15.873C406.553-16.584 407.31-17.0625 407.775-17.3086 407.838-17.3451 407.902-17.3633 407.966-17.3633 408.066-17.3633 408.18-17.2995 408.308-17.1719 410.431-15.1758 411.981-12.9062 412.956-10.3633 413.002-10.263 413.025-10.181 413.025-10.1172 413.025-10.0078 412.965-9.90299 412.847-9.80273 412.318-9.30143 411.616-8.83659 410.741-8.4082 410.641-8.35352 410.545-8.32617 410.454-8.32617 410.272-8.32617 410.153-8.42643 410.099-8.62695 408.941-11.6621 407.41-14.0775 405.505-15.873Z" fill="#F2F2F2" transform="translate(27.609 49)"/></g></g><text fill="#F2F2F2" font-family="Yu Gothic,Yu Gothic_MSFontService,sans-serif" font-weight="700" font-size="28" transform="translate(419.609 106)">プレーパークを知っていますか</text></g><g clip-path="url(#clip21)"><rect x="491" y="604" width="14" height="14" fill="url(#fill22)"/></g><g clip-path="url(#clip23)"><text fill="#D9D9D9" font-family="Yu Gothic,Yu Gothic_MSFontService,sans-serif" font-weight="700" font-size="24" transform="translate(511.002 618)">知っている</text></g><g clip-path="url(#clip24)"><rect x="657" y="604" width="13" height="14" fill="url(#fill25)"/></g><g clip-path="url(#clip26)"><text fill="#D9D9D9" font-family="Yu Gothic,Yu Gothic_MSFontService,sans-serif" font-weight="700" font-size="24" transform="translate(676.913 618)">知らない</text></g></g></svg>