<svg width="847" height="678" xmlns="http://www.w3.org/2000/svg" xmlns:xlink="http://www.w3.org/1999/xlink" overflow="hidden"><defs><filter id="fx0" x="-10%" y="-10%" width="120%" height="120%" filterUnits="userSpaceOnUse" primitiveUnits="userSpaceOnUse"><feComponentTransfer color-interpolation-filters="sRGB"><feFuncR type="discrete" tableValues="0 0"/><feFuncG type="discrete" tableValues="0 0"/><feFuncB type="discrete" tableValues="0 0"/><feFuncA type="linear" slope="0.631373" intercept="0"/></feComponentTransfer><feGaussianBlur stdDeviation="2 2"/></filter><filter id="fx1" x="-10%" y="-10%" width="120%" height="120%" filterUnits="userSpaceOnUse" primitiveUnits="userSpaceOnUse"><feComponentTransfer color-interpolation-filters="sRGB"><feFuncR type="discrete" tableValues="0 0"/><feFuncG type="discrete" tableValues="0 0"/><feFuncB type="discrete" tableValues="0 0"/><feFuncA type="linear" slope="0.631373" intercept="0"/></feComponentTransfer><feGaussianBlur stdDeviation="2 2"/></filter><filter id="fx2" x="-10%" y="-10%" width="120%" height="120%" filterUnits="userSpaceOnUse" primitiveUnits="userSpaceOnUse"><feComponentTransfer color-interpolation-filters="sRGB"><feFuncR type="discrete" tableValues="0 0"/><feFuncG type="discrete" tableValues="0 0"/><feFuncB type="discrete" tableValues="0 0"/><feFuncA type="linear" slope="0.631373" intercept="0"/></feComponentTransfer><feGaussianBlur stdDeviation="2 2"/></filter><filter id="fx3" x="-10%" y="-10%" width="120%" height="120%" filterUnits="userSpaceOnUse" primitiveUnits="userSpaceOnUse"><feComponentTransfer color-interpolation-filters="sRGB"><feFuncR type="discrete" tableValues="0 0"/><feFuncG type="discrete" tableValues="0 0"/><feFuncB type="discrete" tableValues="0 0"/><feFuncA type="linear" slope="0.4" intercept="0"/></feComponentTransfer><feGaussianBlur stdDeviation="0.919979 0.919979"/></filter><filter id="fx4" x="-10%" y="-10%" width="120%" height="120%" filterUnits="userSpaceOnUse" primitiveUnits="userSpaceOnUse"><feComponentTransfer color-interpolation-filters="sRGB"><feFuncR type="discrete" tableValues="0 0"/><feFuncG type="discrete" tableValues="0 0"/><feFuncB type="discrete" tableValues="0 0"/><feFuncA type="linear" slope="0.4" intercept="0"/></feComponentTransfer><feGaussianBlur stdDeviation="0.919979 0.919979"/></filter><filter id="fx5" x="-10%" y="-10%" width="120%" height="120%" filterUnits="userSpaceOnUse" primitiveUnits="userSpaceOnUse"><feComponentTransfer color-interpolation-filters="sRGB"><feFuncR type="discrete" tableValues="0 0"/><feFuncG type="discrete" tableValues="0 0"/><feFuncB type="discrete" tableValues="0 0"/><feFuncA type="linear" slope="0.4" intercept="0"/></feComponentTransfer><feGaussianBlur stdDeviation="0.919979 0.919979"/></filter><clipPath id="clip6"><rect x="191" y="32" width="847" height="678"/></clipPath><radialGradient cx="4024312" cy="3219450" r="5153634" gradientUnits="userSpaceOnUse" spreadMethod="pad" id="fill7" gradientTransform="matrix(0.000104987 0 0 0.000104987 192 33)"><stop offset="0" stop-color="#595959"/><stop offset="0.02" stop-color="#585858"/><stop offset="0.04" stop-color="#585858"/><stop offset="0.06" stop-color="#585858"/><stop offset="0.08" stop-color="#585858"/><stop offset="0.1" stop-color="#585858"/><stop offset="0.12" stop-color="#585858"/><stop offset="0.14" stop-color="#575757"/><stop offset="0.16" stop-color="#575757"/><stop offset="0.18" stop-color="#565656"/><stop offset="0.2" stop-color="#565656"/><stop offset="0.22" stop-color="#565656"/><stop offset="0.24" stop-color="#555555"/><stop offset="0.26" stop-color="#545454"/><stop offset="0.28" stop-color="#545454"/><stop offset="0.3" stop-color="#535353"/><stop offset="0.32" stop-color="#525252"/><stop offset="0.34" stop-color="#525252"/><stop offset="0.36" stop-color="#515151"/><stop offset="0.38" stop-color="#505050"/><stop offset="0.4" stop-color="#4F4F4F"/><stop offset="0.42" stop-color="#4E4E4E"/><stop offset="0.44" stop-color="#4E4E4E"/><stop offset="0.46" stop-color="#4D4D4D"/><stop offset="0.48" stop-color="#4C4C4C"/><stop offset="0.5" stop-color="#4B4B4B"/><stop offset="0.52" stop-color="#4A4A4A"/><stop offset="0.54" stop-color="#484848"/><stop offset="0.56" stop-color="#474747"/><stop offset="0.58" stop-color="#464646"/><stop offset="0.6" stop-color="#454545"/><stop offset="0.62" stop-color="#444444"/><stop offset="0.64" stop-color="#424242"/><stop offset="0.66" stop-color="#414141"/><stop offset="0.68" stop-color="#404040"/><stop offset="0.7" stop-color="#3E3E3E"/><stop offset="0.72" stop-color="#3D3D3D"/><stop offset="0.74" stop-color="#3C3C3C"/><stop offset="0.76" stop-color="#3A3A3A"/><stop offset="0.78" stop-color="#383838"/><stop offset="0.8" stop-color="#373737"/><stop offset="0.82" stop-color="#353535"/><stop offset="0.84" stop-color="#343434"/><stop offset="0.86" stop-color="#323232"/><stop offset="0.88" stop-color="#303030"/><stop offset="0.9" stop-color="#2F2F2F"/><stop offset="0.92" stop-color="#2D2D2D"/><stop offset="0.94" stop-color="#2B2B2B"/><stop offset="0.96" stop-color="#292929"/><stop offset="0.98" stop-color="#272727"/><stop offset="1" stop-color="#262626"/></radialGradient><clipPath id="clip8"><rect x="192" y="32" width="845" height="677"/></clipPath><clipPath id="clip9"><rect x="-2" y="-2" width="487" height="487"/></clipPath><clipPath id="clip10"><rect x="0" y="0" width="484" height="483"/></clipPath><clipPath id="clip11"><rect x="192" y="32" width="845" height="677"/></clipPath><clipPath id="clip12"><rect x="-2" y="-2" width="227" height="167"/></clipPath><clipPath id="clip13"><rect x="0" y="0" width="224" height="164"/></clipPath><clipPath id="clip14"><rect x="192" y="32" width="845" height="677"/></clipPath><clipPath id="clip15"><rect x="-2" y="-2" width="199" height="252"/></clipPath><clipPath id="clip16"><rect x="0" y="0" width="196" height="249"/></clipPath><clipPath id="clip17"><rect x="192" y="32" width="845" height="677"/></clipPath><linearGradient x1="614.667" y1="142.684" x2="614.667" y2="612.433" gradientUnits="userSpaceOnUse" spreadMethod="reflect" id="fill18"><stop offset="0" stop-color="#BDD5B3"/><stop offset="0.5" stop-color="#B3D1A6"/><stop offset="1" stop-color="#9DBB90"/></linearGradient><clipPath id="clip19"><rect x="192" y="32" width="845" height="677"/></clipPath><linearGradient x1="509.883" y1="228.243" x2="509.883" y2="377.559" gradientUnits="userSpaceOnUse" spreadMethod="reflect" id="fill20"><stop offset="0" stop-color="#81B861"/><stop offset="0.5" stop-color="#6FB242"/><stop offset="1" stop-color="#61A235"/></linearGradient><clipPath id="clip21"><rect x="192" y="32" width="845" height="677"/></clipPath><linearGradient x1="524.015" y1="142.684" x2="524.015" y2="377.559" gradientUnits="userSpaceOnUse" spreadMethod="reflect" id="fill22"><stop offset="0" stop-color="#709C58"/><stop offset="0.5" stop-color="#5A9335"/><stop offset="1" stop-color="#4F852A"/></linearGradient><clipPath id="clip23"><rect x="192" y="32" width="845" height="677"/></clipPath><clipPath id="clip24"><rect x="192" y="32" width="845" height="677"/></clipPath><clipPath id="clip25"><rect x="192" y="32" width="845" height="677"/></clipPath><clipPath id="clip26"><rect x="192" y="32" width="845" height="677"/></clipPath><clipPath id="clip27"><rect x="25" y="23" width="33" height="32"/></clipPath><clipPath id="clip28"><rect x="0" y="0" width="85" height="92"/></clipPath><clipPath id="clip29"><rect x="192" y="32" width="845" height="677"/></clipPath><clipPath id="clip30"><rect x="25" y="26" width="20" height="26"/></clipPath><clipPath id="clip31"><rect x="0" y="0" width="72" height="92"/></clipPath><clipPath id="clip32"><rect x="192" y="32" width="845" height="677"/></clipPath><clipPath id="clip33"><rect x="27" y="24" width="417" height="31"/></clipPath><clipPath id="clip34"><rect x="0" y="0" width="471" height="92"/></clipPath><clipPath id="clip35"><rect x="192" y="32" width="845" height="677"/></clipPath><linearGradient x1="386" y1="675" x2="386" y2="689" gradientUnits="userSpaceOnUse" spreadMethod="reflect" id="fill36"><stop offset="0" stop-color="#BDD5B3"/><stop offset="0.5" stop-color="#B3D1A6"/><stop offset="1" stop-color="#9DBB90"/></linearGradient><clipPath id="clip37"><rect x="192" y="32" width="845" height="677"/></clipPath><clipPath id="clip38"><rect x="192" y="32" width="845" height="677"/></clipPath><linearGradient x1="484" y1="675" x2="484" y2="689" gradientUnits="userSpaceOnUse" spreadMethod="reflect" id="fill39"><stop offset="0" stop-color="#81B861"/><stop offset="0.5" stop-color="#6FB242"/><stop offset="1" stop-color="#61A235"/></linearGradient><clipPath id="clip40"><rect x="192" y="32" width="845" height="677"/></clipPath><clipPath id="clip41"><rect x="192" y="32" width="845" height="677"/></clipPath><linearGradient x1="630" y1="675" x2="630" y2="689" gradientUnits="userSpaceOnUse" spreadMethod="reflect" id="fill42"><stop offset="0" stop-color="#709C58"/><stop offset="0.5" stop-color="#5A9335"/><stop offset="1" stop-color="#4F852A"/></linearGradient><clipPath id="clip43"><rect x="192" y="32" width="845" height="677"/></clipPath></defs><g clip-path="url(#clip6)" transform="translate(-191 -32)"><rect x="192" y="33" width="845" height="676" fill="url(#fill7)"/><g clip-path="url(#clip8)"><g clip-path="url(#clip9)" filter="url(#fx0)" transform="translate(373 138)"><g clip-path="url(#clip10)"><path d="M241.667 6.6842C371.384 6.6842 476.541 111.841 476.541 241.559 476.541 371.277 371.384 476.433 241.667 476.433 111.949 476.433 6.79202 371.277 6.79202 241.559 6.79202 204.712 15.4612 168.382 32.0988 135.505L241.667 241.559Z" fill="#FF0000" fill-rule="evenodd"/></g></g></g><g clip-path="url(#clip11)"><g clip-path="url(#clip12)" filter="url(#fx1)" transform="translate(398 223)"><g clip-path="url(#clip13)"><path d="M7.09858 50.5051C14.9001 35.0889 24.3789 20.5805 35.3628 7.24347L216.667 156.559Z" fill="#FF0000" fill-rule="evenodd"/></g></g></g><g clip-path="url(#clip14)"><g clip-path="url(#clip15)" filter="url(#fx2)" transform="translate(426 138)"><g clip-path="url(#clip16)"><path d="M7.36317 92.2434C51.9797 38.0686 118.485 6.68415 188.667 6.68415L188.667 241.559Z" fill="#FF0000" fill-rule="evenodd"/></g></g></g><g clip-path="url(#clip17)"><path d="M614.667 142.684C744.384 142.684 849.541 247.841 849.541 377.559 849.541 507.277 744.384 612.433 614.667 612.433 484.949 612.433 379.792 507.277 379.792 377.559 379.792 340.712 388.461 304.382 405.099 271.505L614.667 377.559Z" fill="url(#fill18)" fill-rule="evenodd"/></g><g clip-path="url(#clip19)"><path d="M405.099 271.505C412.9 256.089 422.379 241.581 433.363 228.243L614.667 377.559Z" fill="url(#fill20)" fill-rule="evenodd"/></g><g clip-path="url(#clip21)"><path d="M433.363 228.243C477.98 174.069 544.485 142.684 614.667 142.684L614.667 377.559Z" fill="url(#fill22)" fill-rule="evenodd"/></g><g clip-path="url(#clip23)"><text fill="#D9D9D9" font-family="Yu Gothic,Yu Gothic_MSFontService,sans-serif" font-weight="700" font-size="37" transform="translate(688 542)">82%</text></g><g clip-path="url(#clip24)"><text fill="#D9D9D9" font-family="Yu Gothic,Yu Gothic_MSFontService,sans-serif" font-weight="700" font-size="37" transform="translate(362 244)">4%</text></g><g clip-path="url(#clip25)"><text fill="#D9D9D9" font-family="Yu Gothic,Yu Gothic_MSFontService,sans-serif" font-weight="700" font-size="37" transform="translate(498 224)">14%</text></g><g clip-path="url(#clip26)"><g clip-path="url(#clip27)" filter="url(#fx3)" transform="translate(375 43)"><g clip-path="url(#clip28)"><path d="M3.8418-13.8633C3.69596-13.8633 3.60482-13.8815 3.56836-13.918 3.54102-13.9544 3.52734-14.0365 3.52734-14.1641L3.52734-15.9551C3.52734-16.11 3.55013-16.2012 3.5957-16.2285 3.62305-16.2559 3.70508-16.2695 3.8418-16.2695L7.64258-16.2148 19.0996-16.2148 23.5566-16.2695C23.7116-16.2695 23.8073-16.2513 23.8438-16.2148 23.8711-16.1784 23.8848-16.0918 23.8848-15.9551L23.8301-13.8633 23.8301-12.0449 23.8848-9.92578C23.8848-9.77083 23.862-9.67969 23.8164-9.65234 23.7799-9.625 23.6934-9.61133 23.5566-9.61133L19.0996-9.66602 15.2031-9.66602 15.2305-7.72461 21.3691-7.72461 25.293-7.7793C25.5208-7.7793 25.6348-7.69727 25.6348-7.5332 25.6348-7.50586 25.6348-7.47396 25.6348-7.4375 25.6074-7.26432 25.5208-6.4349 25.375-4.94922 25.2018-3.04427 24.8919-1.73633 24.4453-1.02539 23.8893-0.0592448 22.791 0.423828 21.1504 0.423828 20.5124 0.423828 19.9701 0.405599 19.5234 0.369141 19.1133 0.341797 18.8581 0.26888 18.7578 0.150391 18.6758 0.0501302 18.5938-0.205078 18.5117-0.615234 18.4023-1.18034 18.1882-1.8138 17.8691-2.51562 18.9538-2.32422 19.8789-2.22852 20.6445-2.22852 21.401-2.22852 21.875-2.40625 22.0664-2.76172 22.2852-3.19922 22.4355-4.08789 22.5176-5.42773L15.2578-5.42773 15.3262-2.85742C15.3353-1.72721 15.3672-0.619792 15.4219 0.464844 15.4674 1.32161 15.4902 1.77279 15.4902 1.81836 15.4902 1.98242 15.4674 2.07812 15.4219 2.10547 15.3854 2.14193 15.2943 2.16016 15.1484 2.16016L12.7969 2.16016C12.651 2.16016 12.5645 2.13737 12.5371 2.0918 12.5098 2.05534 12.4961 1.96419 12.4961 1.81836L12.5234-1.33984C12.5234-1.59505 12.5234-2.0918 12.5234-2.83008L12.4961-3.97852C10.1992-1.57227 7.21875 0.223307 3.55469 1.4082 3.14453 1.51758 2.92122 1.57227 2.88477 1.57227 2.7207 1.57227 2.52474 1.34896 2.29688 0.902344 1.95052 0.227865 1.54948-0.350911 1.09375-0.833984 5.30469-1.90951 8.50846-3.44076 10.7051-5.42773L5.85156-5.42773 5.57812-4.64844C5.51432-4.45703 5.37305-4.36133 5.1543-4.36133 5.01758-4.36133 4.65299-4.38867 4.06055-4.44336 3.10352-4.54362 2.625-4.65755 2.625-4.78516 2.625-4.8125 2.63867-4.85807 2.66602-4.92188 3.32227-6.54427 3.85547-8.22591 4.26562-9.9668 4.44792-10.7051 4.55729-11.2747 4.59375-11.6758 4.62109-11.9219 4.73503-12.0449 4.93555-12.0449L8.73633-11.9902 12.4141-11.9902 12.373-13.918 7.64258-13.918ZM21-13.918 15.1484-13.918 15.1758-11.9902 21-11.9902ZM6.58984-7.72461 12.4688-7.72461 12.4414-9.66602 7.10938-9.66602ZM12.6055-17.9648C12.9427-18.3021 13.248-18.6393 13.5215-18.9766L10.4453-19.0312C10.737-18.5482 10.9922-18.0742 11.2109-17.6094 11.2474-17.5182 11.2656-17.4499 11.2656-17.4043 11.2656-17.3314 11.1608-17.2676 10.9512-17.2129L9.07812-16.7891C8.92318-16.7617 8.82292-16.748 8.77734-16.748 8.66797-16.748 8.58138-16.8483 8.51758-17.0488 8.25325-17.8418 7.97982-18.5026 7.69727-19.0312L5.6875-19.0312C5.16797-18.2747 4.47526-17.4818 3.60938-16.6523 3.31771-16.3516 3.11263-16.2012 2.99414-16.2012 2.89388-16.2012 2.6888-16.3698 2.37891-16.707 2.00521-17.1081 1.54948-17.4818 1.01172-17.8281 2.59766-19.1862 3.78255-20.681 4.56641-22.3125 4.75781-22.6497 4.92643-23.0781 5.07227-23.5977 5.93815-23.5065 6.75846-23.3789 7.5332-23.2148 7.81575-23.1602 7.95703-23.0371 7.95703-22.8457 7.95703-22.7363 7.88411-22.6042 7.73828-22.4492 7.54688-22.2669 7.38737-22.0345 7.25977-21.752L7-21.2734 10.2539-21.2734 13.5215-21.3281C13.6855-21.3281 13.7858-21.3099 13.8223-21.2734 13.8496-21.237 13.8633-21.1549 13.8633-21.0273L13.8633-19.373C14.5742-20.2845 15.1439-21.2461 15.5723-22.2578 15.7181-22.5404 15.8685-22.9779 16.0234-23.5703 16.8529-23.4883 17.6367-23.3607 18.375-23.1875 18.6758-23.1055 18.8262-22.9824 18.8262-22.8184 18.8262-22.709 18.7487-22.5768 18.5938-22.4219 18.4753-22.3216 18.334-22.0983 18.1699-21.752L17.9785-21.2734 22.0938-21.2734 26.0996-21.3281C26.2819-21.3281 26.373-21.2279 26.373-21.0273L26.373-19.291C26.373-19.0814 26.2819-18.9766 26.0996-18.9766L22.0938-19.0312 21.6426-19.0312C21.8796-18.6576 22.1439-18.1836 22.4355-17.6094 22.472-17.5182 22.4902-17.4499 22.4902-17.4043 22.4902-17.3132 22.3763-17.2402 22.1484-17.1855L20.3301-16.7617C20.1842-16.7344 20.084-16.7207 20.0293-16.7207 19.9199-16.7207 19.8333-16.8118 19.7695-16.9941 19.4779-17.8053 19.1908-18.4844 18.9082-19.0312L16.8027-19.0312C16.3014-18.2839 15.7773-17.6139 15.2305-17.0215 14.9479-16.7025 14.752-16.543 14.6426-16.543 14.5514-16.543 14.3372-16.7116 14-17.0488 13.6172-17.4134 13.1523-17.7188 12.6055-17.9648Z" fill="#F2F2F2" transform="translate(27.6489 50)"/></g></g><text fill="#F2F2F2" font-family="Yu Gothic,Yu Gothic_MSFontService,sans-serif" font-weight="700" font-size="28" transform="translate(402.649 91)">第</text></g><g clip-path="url(#clip29)"><g clip-path="url(#clip30)" filter="url(#fx4)" transform="translate(405 43)"><g clip-path="url(#clip31)"><path d="M1.36719-17.0625C1.79557-18.6484 2.64323-19.8424 3.91016-20.6445 4.99479-21.3281 6.30273-21.6699 7.83398-21.6699 9.89388-21.6699 11.5208-21.0957 12.7148-19.9473 13.7357-18.972 14.2461-17.7552 14.2461-16.2969 14.2461-14.9388 13.8405-13.8223 13.0293-12.9473 12.3092-12.1816 11.3522-11.694 10.1582-11.4844L10.1582-11.293C11.6986-10.9648 12.8607-10.2812 13.6445-9.24219 14.3281-8.33984 14.6699-7.22786 14.6699-5.90625 14.6699-3.88281 13.959-2.27865 12.5371-1.09375 11.3066-0.0638021 9.73893 0.451172 7.83398 0.451172 4.21549 0.451172 1.95052-1.12565 1.03906-4.2793L4.4707-5.29102C4.72591-4.15169 5.14974-3.34961 5.74219-2.88477 6.2526-2.47461 6.94075-2.26953 7.80664-2.26953 8.89128-2.26953 9.72526-2.62956 10.3086-3.34961 10.8281-3.98763 11.0879-4.83073 11.0879-5.87891 11.0879-8.45833 9.70703-9.74805 6.94531-9.74805L5.31836-9.74805 5.31836-12.6055 6.79492-12.6055C9.41081-12.6055 10.7188-13.7266 10.7188-15.9688 10.7188-16.9987 10.418-17.7734 9.81641-18.293 9.30599-18.7396 8.62695-18.9629 7.7793-18.9629 6.94987-18.9629 6.27083-18.6895 5.74219-18.1426 5.25-17.6322 4.9401-16.9258 4.8125-16.0234Z" fill="#F2F2F2" transform="translate(27.3555 50)"/></g></g><text fill="#F2F2F2" font-family="Yu Gothic,Yu Gothic_MSFontService,sans-serif" font-weight="700" font-size="28" transform="translate(432.356 91)">3</text></g><g clip-path="url(#clip32)"><g clip-path="url(#clip33)" filter="url(#fx5)" transform="translate(422 43)"><g clip-path="url(#clip34)"><path d="M15.791-17.1582C15.0892-11.972 13.9225-7.95247 12.291-5.09961 11.0605-2.94857 9.47005-1.87305 7.51953-1.87305 6.10677-1.87305 4.91276-2.58398 3.9375-4.00586 3.02604-5.35482 2.57031-7.04102 2.57031-9.06445 2.57031-11.8079 3.62305-14.237 5.72852-16.3516 8.11654-18.7396 11.1517-19.9336 14.834-19.9336 18.3431-19.9336 21.0775-18.8945 23.0371-16.8164 24.6777-15.0664 25.498-12.8698 25.498-10.2266 25.498-5.15885 22.6224-1.75911 16.8711-0.0273438 16.707 0.0182292 16.5703 0.0410156 16.4609 0.0410156 16.1875 0.0410156 15.9232-0.150391 15.668-0.533203 15.2669-1.16211 14.6152-1.75 13.7129-2.29688 16.5931-2.98047 18.6895-3.94206 20.002-5.18164 21.4421-6.53971 22.1621-8.36719 22.1621-10.6641 22.1621-12.5326 21.5104-14.1094 20.207-15.3945 19.0221-16.5703 17.5866-17.1582 15.9004-17.1582ZM12.5371-16.9941C10.541-16.5931 8.94596-15.7454 7.75195-14.4512 6.29362-12.8105 5.56445-11.0833 5.56445-9.26953 5.56445-7.98437 5.79688-6.94987 6.26172-6.16602 6.6263-5.56445 7.02734-5.26367 7.46484-5.26367 8.23047-5.26367 8.93229-5.83333 9.57031-6.97266 10.2539-8.22135 10.8783-9.82552 11.4434-11.7852 11.9538-13.5625 12.3184-15.2988 12.5371-16.9941ZM36.8297-11.9492 44.1578-11.9492C44.1578-13.1797 44.094-14.0684 43.9664-14.6152 45.1787-14.5879 46.1676-14.515 46.9332-14.3965 47.234-14.36 47.3844-14.2552 47.3844-14.082 47.3844-13.9544 47.3252-13.7767 47.2067-13.5488 47.0791-13.3118 47.0153-12.7786 47.0153-11.9492L51.8824-11.9492 55.7379-12.0039C55.8929-12.0039 55.984-11.9857 56.0114-11.9492 56.0387-11.9128 56.0524-11.8307 56.0524-11.7031L56.0524-9.625C56.0524-9.48828 56.0364-9.40397 56.0045-9.37207 55.9726-9.34017 55.8837-9.32422 55.7379-9.32422L51.8824-9.37891 47.0153-9.37891 47.0153-7.08203 49.6129-7.08203 53.3317-7.13672C53.4775-7.13672 53.5686-7.11849 53.6051-7.08203 53.6324-7.04557 53.6461-6.95898 53.6461-6.82227L53.5914-4.51172 53.5914-2.40625 53.6461 1.83203C53.6461 1.98698 53.6279 2.08268 53.5914 2.11914 53.555 2.14648 53.4684 2.16016 53.3317 2.16016L51.0074 2.16016C50.8616 2.16016 50.775 2.14193 50.7477 2.10547 50.7203 2.0599 50.7067 1.96875 50.7067 1.83203L50.7067 0.929688 40.9996 0.929688 40.9996 1.91406C40.9996 2.0599 40.9814 2.14648 40.9449 2.17383 40.9085 2.20117 40.8219 2.21484 40.6852 2.21484L38.4156 2.21484C38.2698 2.21484 38.1832 2.19661 38.1559 2.16016 38.1285 2.1237 38.1149 2.04167 38.1149 1.91406L38.1696-2.35156 38.1696-4.16992 38.1149-6.82227C38.1149-6.97721 38.1331-7.06836 38.1696-7.0957 38.206-7.12305 38.288-7.13672 38.4156-7.13672L42.1481-7.08203 44.1578-7.08203 44.1578-9.37891 36.652-9.37891C36.5973-8.63151 36.4606-7.48307 36.2418-5.93359 35.7587-3.21745 34.861-0.847656 33.5485 1.17578 33.2933 1.54948 33.1246 1.73633 33.0426 1.73633 32.9606 1.73633 32.7737 1.57682 32.4821 1.25781 31.8167 0.473958 31.2015-0.0820312 30.6364-0.410156 32.0218-2.26953 32.9378-4.5026 33.3844-7.10938 33.7946-9.67057 33.9996-12.6647 33.9996-16.0918L33.9449-22.0391C33.9449-22.1849 33.9632-22.2715 33.9996-22.2988 34.0361-22.3262 34.1181-22.3398 34.2457-22.3398L38.1149-22.2852 50.2555-22.2852 54.0836-22.3398C54.2295-22.3398 54.3206-22.3216 54.3571-22.2852 54.3844-22.2487 54.3981-22.1667 54.3981-22.0391L54.3434-19.8516 54.3434-17.5273 54.3981-15.3672C54.3981-15.2214 54.3798-15.1348 54.3434-15.1074 54.3069-15.0801 54.2203-15.0664 54.0836-15.0664L50.2555-15.1211 36.8844-15.1211 36.8844-14.5332C36.8844-13.8952 36.8662-13.0339 36.8297-11.9492ZM51.4586-17.5547 51.4586-19.7695 36.8844-19.7695 36.8844-17.5547ZM40.9996-4.67578 40.9996-1.47656 50.7067-1.47656 50.7067-4.67578ZM72.0735 0.396484C75.3456-1.36263 77.6379-3.64128 78.9504-6.43945L77.4465-6.43945C75.733-3.78711 73.5592-1.71354 70.925-0.21875 70.5696-0.0182292 70.3326 0.0820312 70.2141 0.0820312 70.0774 0.0820312 69.845-0.0957031 69.5168-0.451172 69.2161-0.797526 68.8241-1.12109 68.3411-1.42188 70.9661-2.65234 73.0487-4.32487 74.5891-6.43945L72.8254-6.43945C71.7681-5.12695 70.5377-4.02865 69.134-3.14453 68.733-2.89844 68.496-2.77539 68.4231-2.77539 68.3137-2.77539 68.1178-2.94401 67.8352-3.28125 67.4797-3.70964 67.0331-4.10156 66.4954-4.45703 68.7102-5.66016 70.4374-7.19141 71.677-9.05078 71.8593-9.3151 72.0553-9.70703 72.2649-10.2266L68.9563-10.1719C68.8105-10.1719 68.7239-10.1901 68.6965-10.2266 68.6692-10.2721 68.6555-10.3633 68.6555-10.5L68.6555-12.332C68.6555-12.4779 68.6737-12.5645 68.7102-12.5918 68.7467-12.6191 68.8287-12.6328 68.9563-12.6328L72.7708-12.5781 82.1497-12.5781 85.9504-12.6328C86.0963-12.6328 86.1874-12.6146 86.2239-12.5781 86.2512-12.5417 86.2649-12.4596 86.2649-12.332L86.2649-10.5C86.2649-10.3542 86.2489-10.263 86.217-10.2266 86.1851-10.1901 86.0963-10.1719 85.9504-10.1719L82.1497-10.2266 73.7415-10.2266 74.6711-10.0078C74.9355-9.91667 75.0676-9.79362 75.0676-9.63867 75.0676-9.48372 74.9902-9.36068 74.8352-9.26953 74.6347-9.10547 74.4888-8.93685 74.3977-8.76367L81.6985-8.76367 85.0618-8.81836C85.3079-8.81836 85.4309-8.73177 85.4309-8.55859 85.4309-8.54036 85.4309-8.52213 85.4309-8.50391 85.4218-8.47656 85.4172-8.45833 85.4172-8.44922L85.2258-5.63281C85.0891-3.20833 84.802-1.41732 84.3645-0.259766 84.0546 0.542318 83.6353 1.11198 83.1067 1.44922 82.6236 1.75 81.9856 1.90039 81.1926 1.90039 80.5819 1.90039 80.108 1.88216 79.7708 1.8457 79.4335 1.81836 79.2284 1.75911 79.1555 1.66797 79.0917 1.58594 79.0051 1.33529 78.8958 0.916016 78.7135 0.259766 78.4719-0.355469 78.1711-0.929688 78.8638-0.811198 79.7115-0.751953 80.7141-0.751953 81.0605-0.751953 81.302-0.806641 81.4387-0.916016 81.5754-1.03451 81.6985-1.27148 81.8079-1.62695 82.1178-2.62956 82.3638-4.23372 82.5461-6.43945L81.5618-6.43945C80.1672-3.14909 77.8704-0.446615 74.6711 1.66797 74.3157 1.8776 74.0924 1.98242 74.0012 1.98242 73.8645 1.98242 73.6321 1.80469 73.304 1.44922 72.9029 0.99349 72.4928 0.642578 72.0735 0.396484ZM79.9622-22.4492 83.3528-22.5039C83.4986-22.5039 83.5898-22.4857 83.6262-22.4492 83.6536-22.4128 83.6672-22.3262 83.6672-22.1895L83.6125-19.8242 83.6125-16.4336 83.6672-14.0273C83.6672-13.8815 83.649-13.7949 83.6125-13.7676 83.5761-13.7402 83.4895-13.7266 83.3528-13.7266L79.9622-13.7812 74.6985-13.7812 71.2805-13.7266C71.1347-13.7266 71.0481-13.7448 71.0208-13.7812 70.9934-13.8177 70.9797-13.8997 70.9797-14.0273L71.0344-16.4336 71.0344-19.8242 70.9797-22.1895C70.9797-22.3444 70.998-22.4355 71.0344-22.4629 71.0709-22.4902 71.1529-22.5039 71.2805-22.5039L74.6985-22.4492ZM80.9465-15.791 80.9465-17.1719 73.6047-17.1719 73.6047-15.791ZM80.9465-20.3438 73.6047-20.3438 73.6047-19.0176 80.9465-19.0176ZM68.9973-9.10547C68.9791-8.78646 68.97-8.20768 68.97-7.36914L68.97-6.98633C68.97-6.722 68.9198-6.53971 68.8196-6.43945 68.7558-6.38477 68.5598-6.26172 68.2317-6.07031 66.4361-5.08594 64.718-4.28385 63.0774-3.66406 62.6125-3.5 62.3163-3.36784 62.1887-3.26758 61.9882-3.10352 61.8196-3.02148 61.6829-3.02148 61.5279-3.02148 61.3866-3.14453 61.259-3.39062 61.0403-3.91927 60.7896-4.7487 60.5071-5.87891 61.4915-6.0612 62.4166-6.29362 63.2825-6.57617 63.3554-6.61263 63.4648-6.65365 63.6106-6.69922 63.7564-6.74479 63.8613-6.78125 63.9251-6.80859L63.9251-13.7539 63.6926-13.7539 61.1223-13.6855C60.94-13.6855 60.8489-13.7904 60.8489-14L60.8489-16.1328C60.8489-16.3333 60.94-16.4336 61.1223-16.4336L63.6926-16.3789 63.9251-16.3789 63.9251-18.7852C63.925-20.5625 63.8476-21.9707 63.6926-23.0098 64.6314-22.9915 65.5885-22.9368 66.5637-22.8457 66.8645-22.8184 67.0149-22.7181 67.0149-22.5449 67.0149-22.4355 66.9556-22.2487 66.8372-21.9844 66.7278-21.6927 66.6731-20.6536 66.6731-18.8672L66.6731-16.3789 68.8879-16.4336C69.0338-16.4336 69.1204-16.4154 69.1477-16.3789 69.175-16.3424 69.1887-16.2604 69.1887-16.1328L69.1887-14C69.1887-13.8542 69.1705-13.763 69.134-13.7266 69.0976-13.6992 69.0155-13.6855 68.8879-13.6855L66.6731-13.7539 66.6731-7.95703C67.8671-8.53125 68.6418-8.91406 68.9973-9.10547ZM99.4286-0.205078C101.261-1.72721 102.509-3.58659 103.175-5.7832 103.703-7.5332 103.968-9.94857 103.968-13.0293L103.968-16.4473C103.968-18.0788 103.899-19.5964 103.763-21 104.802-20.8268 105.69-20.6035 106.429-20.3301 108.434-20.7949 110.243-21.4603 111.856-22.3262 112.33-22.5449 112.827-22.8685 113.347-23.2969 114.012-22.75 114.627-22.0892 115.192-21.3145 115.347-21.1413 115.425-20.9544 115.425-20.7539 115.425-20.5807 115.274-20.4759 114.974-20.4395 114.764-20.4212 114.408-20.3118 113.907-20.1113 111.355-19.0632 108.976-18.2884 106.77-17.7871L106.77-14.3418 111.884-14.3418 115.725-14.3965C115.871-14.3965 115.958-14.3783 115.985-14.3418 116.013-14.3053 116.026-14.2233 116.026-14.0957L116.026-12.0176C116.026-11.8717 116.008-11.7852 115.972-11.7578 115.935-11.7305 115.853-11.7168 115.725-11.7168 115.689-11.7168 115.557-11.7214 115.329-11.7305 114.545-11.7487 113.679-11.7624 112.731-11.7715L112.731-1.61328 112.786 1.88672C112.786 2.07812 112.69 2.17383 112.499 2.17383L110.202 2.17383C110.02 2.17383 109.929 2.07812 109.929 1.88672L109.956-1.61328 109.956-11.7715 106.77-11.7715C106.716-8.69987 106.388-6.22526 105.786-4.34766 105.112-2.24219 103.963-0.350911 102.341 1.32617 102.067 1.62695 101.871 1.77734 101.753 1.77734 101.643 1.77734 101.457 1.61784 101.192 1.29883 100.673 0.697266 100.085 0.195964 99.4286-0.205078ZM92.8524 1.3125C92.6519 1.6862 92.4924 1.87305 92.3739 1.87305 92.2736 1.87305 92.0868 1.72266 91.8134 1.42188 91.2483 0.77474 90.6421 0.277995 89.995-0.0683594 90.9794-1.48112 91.6356-3.32227 91.9638-5.5918 92.1825-7.11393 92.2919-9.22852 92.2919-11.9355L92.2372-16.5977C92.2372-16.7526 92.2554-16.8438 92.2919-16.8711 92.3283-16.8984 92.4104-16.9121 92.538-16.9121L95.368-16.8574 98.868-16.8574 101.671-16.9121C101.817-16.9121 101.908-16.8939 101.944-16.8574 101.972-16.821 101.985-16.7344 101.985-16.5977L101.931-14 101.931-9.7207 101.985-7.17773C101.985-7.01367 101.962-6.91341 101.917-6.87695 101.89-6.84961 101.807-6.83594 101.671-6.83594L99.5106-6.83594C99.3648-6.83594 99.2782-6.85872 99.2509-6.9043 99.2235-6.94075 99.2098-7.0319 99.2098-7.17773L99.2098-7.92969 95.0126-7.92969C94.8121-4.17448 94.092-1.09375 92.8524 1.3125ZM99.2098-14.3691 95.0946-14.3691 95.0946-10.418 99.2098-10.418ZM102.45-22.0391C102.596-22.0391 102.683-22.0208 102.71-21.9844 102.737-21.9479 102.751-21.8613 102.751-21.7246L102.751-19.6875C102.751-19.5326 102.733-19.4368 102.696-19.4004 102.66-19.373 102.578-19.3594 102.45-19.3594L99.1962-19.4141 94.493-19.4141 91.2528-19.3594C91.0979-19.3594 91.0067-19.3822 90.9794-19.4277 90.952-19.4642 90.9384-19.5508 90.9384-19.6875L90.9384-21.7246C90.9384-21.8796 90.9566-21.9707 90.993-21.998 91.0295-22.0254 91.1161-22.0391 91.2528-22.0391L94.493-21.9844 99.1962-21.9844ZM136.792-6.97266C136.755-8.51302 136.719-10.6504 136.682-13.3848 135.37-13.3392 134.344-13.3164 133.606-13.3164 132.603-13.3164 131.706-13.3438 130.913-13.3984 130.603-13.3984 130.439-13.5215 130.42-13.7676 130.284-14.5514 130.215-15.4036 130.215-16.3242 131.455-16.2057 132.699-16.1465 133.948-16.1465 134.823-16.1465 135.707-16.1784 136.6-16.2422L136.573-19.1816C136.545-20.1478 136.422-21.0592 136.204-21.916 137.726-21.7884 138.856-21.6152 139.594-21.3965 139.931-21.2962 140.1-21.1367 140.1-20.918 140.1-20.8542 140.045-20.6947 139.936-20.4395 139.818-20.166 139.74-19.8379 139.704-19.4551 139.667-18.8262 139.649-17.8372 139.649-16.4883 140.898-16.5977 142.224-16.7663 143.627-16.9941 143.7-17.0124 143.76-17.0215 143.805-17.0215 143.942-17.0215 144.033-16.903 144.079-16.666 144.188-16.1556 144.243-15.4902 144.243-14.6699 144.243-14.4238 144.138-14.2826 143.928-14.2461 142.944-14 141.508-13.804 139.622-13.6582 139.622-10.9056 139.69-8.40365 139.827-6.15234 141.522-5.46875 143.071-4.57552 144.475-3.47266 144.621-3.3724 144.694-3.27669 144.694-3.18555 144.694-3.13086 144.667-3.03971 144.612-2.91211 144.183-2.06445 143.755-1.3444 143.327-0.751953 143.236-0.642578 143.149-0.587891 143.067-0.587891 142.994-0.587891 142.912-0.633464 142.821-0.724609 141.946-1.54492 140.939-2.29232 139.799-2.9668 139.562-0.542318 137.853 0.669922 134.672 0.669922 132.968 0.669922 131.674 0.273437 130.79-0.519531 130.033-1.20312 129.655-2.11003 129.655-3.24023 129.655-4.4707 130.179-5.46419 131.227-6.2207 132.129-6.86784 133.241-7.19141 134.563-7.19141 135.329-7.19141 136.071-7.11849 136.792-6.97266ZM136.86-4.30664C136.085-4.55273 135.274-4.67578 134.426-4.67578 133.023-4.67578 132.321-4.22917 132.321-3.33594 132.321-2.39714 133.077-1.92773 134.59-1.92773 135.319-1.92773 135.903-2.12826 136.34-2.5293 136.705-2.86654 136.887-3.27214 136.887-3.74609 136.887-3.97396 136.878-4.16081 136.86-4.30664ZM123.858-21.8613C125.426-21.4694 126.487-21.1367 127.043-20.8633 127.326-20.7083 127.467-20.5215 127.467-20.3027 127.467-20.1478 127.403-19.9427 127.276-19.6875 127.121-19.4232 126.952-18.9082 126.77-18.1426 125.84-13.8678 125.375-10.4681 125.375-7.94336 125.375-6.33919 125.403-5.14518 125.458-4.36133 125.594-4.67122 125.9-5.35026 126.374-6.39844 126.711-7.13672 126.984-7.75651 127.194-8.25781 127.522-7.5013 127.85-6.91341 128.178-6.49414 128.288-6.35742 128.342-6.22526 128.342-6.09766 128.342-5.97005 128.288-5.81966 128.178-5.64648 127.358-3.81445 126.879-2.39714 126.743-1.39453 126.697-1.07552 126.674-0.788411 126.674-0.533203 126.674-0.369141 126.688-0.159505 126.715 0.0957031 126.715 0.123047 126.715 0.141276 126.715 0.150391 126.715 0.277995 126.601 0.378255 126.374 0.451172 125.872 0.633464 125.175 0.792969 124.282 0.929688 124.191 0.957031 124.118 0.970703 124.063 0.970703 123.926 0.970703 123.812 0.847656 123.721 0.601562 122.919-1.4401 122.518-4.28841 122.518-7.94336 122.518-10.3132 122.901-13.8542 123.667-18.5664 123.821-19.651 123.899-20.4896 123.899-21.082 123.899-21.3646 123.885-21.6243 123.858-21.8613ZM166.867-6.30273C167.405-5.97461 168.198-5.69206 169.246-5.45508 169.565-5.38216 169.761-5.31836 169.834-5.26367 169.907-5.19075 169.943-5.07227 169.943-4.9082 169.943-4.82617 169.934-4.69401 169.916-4.51172 169.852-2.83464 169.661-1.60872 169.342-0.833984 169.087-0.214193 168.69 0.277995 168.152 0.642578 167.277 1.26237 165.573 1.57227 163.039 1.57227 160.943 1.57227 159.503 1.35807 158.719 0.929688 157.844 0.428385 157.406-0.505859 157.406-1.87305L157.406-1.95508C155.775-0.843099 154.152 0.0820313 152.539 0.820312 152.202 0.984375 151.979 1.06641 151.869 1.06641 151.714 1.06641 151.509 0.843099 151.254 0.396484 150.807-0.296224 150.292-0.875 149.709-1.33984 152.434-2.42448 155-3.8737 157.406-5.6875L157.406-13.6035C157.406-14.7246 157.361-15.6224 157.27-16.2969 158.218-16.2695 159.216-16.1738 160.264-16.0098 160.601-15.9551 160.77-15.8366 160.77-15.6543 160.77-15.4447 160.715-15.2578 160.606-15.0938 160.469-14.9115 160.401-14.3145 160.401-13.3027L160.401-8.17578C160.82-8.57682 161.408-9.17383 162.164-9.9668 164.16-12.1452 165.951-14.8978 167.537-18.2246 168.066-19.3275 168.449-20.362 168.686-21.3281 169.889-20.8359 170.832-20.3893 171.516-19.9883 171.78-19.8607 171.912-19.6829 171.912-19.4551 171.912-19.3457 171.798-19.1771 171.57-18.9492 171.261-18.6667 170.841-18.0241 170.313-17.0215 168.572-13.6035 166.667-10.7096 164.598-8.33984 163.249-6.80859 161.85-5.43685 160.401-4.22461L160.401-2.85742C160.401-2.20117 160.587-1.77734 160.961-1.58594 161.28-1.40365 162.027-1.3125 163.203-1.3125 164.124-1.3125 164.785-1.36263 165.186-1.46289 165.468-1.52669 165.733-1.6543 165.979-1.8457 166.352-2.11003 166.594-2.57943 166.703-3.25391 166.813-3.85547 166.867-4.87175 166.867-6.30273ZM172.049-13.1387C173.471-10.6595 174.574-7.90234 175.358-4.86719 175.385-4.78516 175.399-4.7168 175.399-4.66211 175.399-4.52539 175.28-4.39779 175.043-4.2793L173.006-3.36328C172.86-3.29036 172.751-3.25391 172.678-3.25391 172.578-3.25391 172.5-3.36328 172.445-3.58203 171.725-6.70833 170.7-9.4974 169.369-11.9492 169.315-12.0312 169.287-12.1042 169.287-12.168 169.287-12.2773 169.397-12.3822 169.615-12.4824L171.488-13.2754C171.643-13.3301 171.744-13.3574 171.789-13.3574 171.871-13.3574 171.958-13.2845 172.049-13.1387ZM153.154-13.5488 155.164-13.0977C155.447-13.0521 155.588-12.9609 155.588-12.8242 155.588-12.7786 155.579-12.7148 155.561-12.6328 155.041-9.57031 154.23-6.84505 153.127-4.45703 153.054-4.3112 152.981-4.23828 152.908-4.23828 152.854-4.23828 152.74-4.27018 152.567-4.33398L150.543-5.12695C150.306-5.20898 150.188-5.3138 150.188-5.44141 150.188-5.49609 150.206-5.56901 150.242-5.66016 151.336-7.7474 152.138-10.3132 152.649-13.3574 152.676-13.5215 152.735-13.6035 152.826-13.6035 152.872-13.6035 152.981-13.5853 153.154-13.5488ZM159.375-23.0508C161.699-22.1758 163.764-21.1276 165.568-19.9062 165.696-19.8333 165.76-19.7513 165.76-19.6602 165.76-19.6146 165.701-19.4915 165.582-19.291L164.434-17.5273C164.288-17.3177 164.183-17.2129 164.119-17.2129 164.065-17.2129 163.992-17.2539 163.901-17.3359 162.205-18.6211 160.141-19.7376 157.707-20.6855 157.561-20.7402 157.488-20.8086 157.488-20.8906 157.488-20.9544 157.548-21.0547 157.666-21.1914L158.815-22.8184C158.951-23.0098 159.061-23.1055 159.143-23.1055 159.197-23.1055 159.275-23.0872 159.375-23.0508ZM183.75-19.8516 180.222-19.7969C180.077-19.7969 179.985-19.8151 179.949-19.8516 179.922-19.888 179.908-19.9701 179.908-20.0977L179.908-22.0938C179.908-22.2396 179.931-22.3262 179.976-22.3535 180.004-22.3809 180.086-22.3945 180.222-22.3945L183.75-22.3398 200.771-22.3398 204.299-22.3945C204.444-22.3945 204.536-22.3763 204.572-22.3398 204.599-22.3034 204.613-22.2214 204.613-22.0938L204.613-20.0977C204.613-19.9518 204.595-19.8652 204.558-19.8379 204.522-19.8105 204.435-19.7969 204.299-19.7969L200.771-19.8516 196.383-19.8516 196.383-17.8691 198.146-17.8691 202.029-17.9238C202.184-17.9238 202.275-17.9056 202.303-17.8691 202.33-17.8327 202.344-17.7461 202.344-17.6094L202.289-15.5449 202.289-13.2617 202.344-11.1973C202.344-11.0423 202.325-10.9512 202.289-10.9238 202.252-10.8965 202.166-10.8828 202.029-10.8828L198.146-10.9375 186.32-10.9375 182.424-10.8828C182.278-10.8828 182.191-10.901 182.164-10.9375 182.136-10.974 182.123-11.0605 182.123-11.1973L182.178-13.2617 182.178-15.5449 182.123-17.6094C182.123-17.7643 182.141-17.8555 182.178-17.8828 182.214-17.9102 182.296-17.9238 182.424-17.9238L186.32-17.8691 187.865-17.8691 187.865-19.8516ZM199.513-13.0703 199.513-15.7637 196.383-15.7637 196.383-13.0703ZM193.662-13.0703 193.662-15.7637 190.586-15.7637 190.586-13.0703ZM184.98-13.0703 187.865-13.0703 187.865-15.7637 184.98-15.7637ZM190.586-17.8691 193.662-17.8691 193.662-19.8516 190.586-19.8516ZM183.408-6.2207 179.935-6.16602C179.753-6.16602 179.662-6.26628 179.662-6.4668L179.662-8.46289C179.662-8.64518 179.753-8.73633 179.935-8.73633L183.408-8.68164 187.892-8.68164C188.321-9.33789 188.685-10.0762 188.986-10.8965 189.934-10.8145 190.845-10.6732 191.72-10.4727 192.003-10.3997 192.144-10.2767 192.144-10.1035 192.144-9.93945 192.044-9.79362 191.844-9.66602 191.643-9.53841 191.37-9.21029 191.023-8.68164L201.113-8.68164 204.586-8.73633C204.768-8.73633 204.859-8.64518 204.859-8.46289L204.859-6.4668C204.859-6.26628 204.768-6.16602 204.586-6.16602L201.113-6.2207 198.584-6.2207C197.946-4.972 197.171-3.86003 196.26-2.88477 198.292-2.25586 200.543-1.38997 203.013-0.287109 203.159-0.223307 203.232-0.150391 203.232-0.0683594 203.232 0.00455729 203.177 0.109375 203.068 0.246094L201.701 1.8457C201.491 2.06445 201.364 2.17383 201.318 2.17383 201.273 2.17383 201.204 2.14648 201.113 2.0918 198.707 0.788411 196.364-0.236979 194.086-0.984375 191.497 0.792969 187.587 1.85482 182.355 2.20117 182.109 2.2194 181.95 2.22852 181.877 2.22852 181.658 2.22852 181.498 2.16927 181.398 2.05078 181.316 1.95964 181.211 1.75 181.084 1.42188 180.865 0.838542 180.541 0.277995 180.113-0.259766 184.634-0.341797 188.116-0.929688 190.558-2.02344 189.893-2.19661 188.708-2.46549 187.004-2.83008 186.985-2.81185 186.881-2.68424 186.689-2.44727 186.543-2.27409 186.375-2.1875 186.183-2.1875 186.11-2.1875 186.028-2.19661 185.937-2.21484L183.914-2.66602C183.759-2.70247 183.681-2.77083 183.681-2.87109 183.681-2.92578 183.704-2.98047 183.75-3.03516L184.42-3.8418C184.839-4.31575 185.185-4.75325 185.459-5.1543L186.238-6.2207ZM195.316-6.2207 189.492-6.2207C189.136-5.69206 188.79-5.20898 188.453-4.77148 190.23-4.43424 191.825-4.08789 193.238-3.73242 194.04-4.44336 194.733-5.27279 195.316-6.2207ZM227.716-19.4277 229.193-20.4668C229.257-20.5124 229.316-20.5352 229.37-20.5352 229.434-20.5352 229.516-20.4941 229.617-20.4121 230.574-19.6738 231.458-18.6758 232.269-17.418 232.324-17.3359 232.351-17.2676 232.351-17.2129 232.351-17.1217 232.301-17.0397 232.201-16.9668L231.025-16.1055C230.943-16.0417 230.87-16.0098 230.806-16.0098 230.715-16.0098 230.628-16.069 230.546-16.1875 229.671-17.5182 228.728-18.5983 227.716-19.4277ZM230.287-21.2734 231.695-22.2852C231.759-22.3307 231.818-22.3535 231.872-22.3535 231.936-22.3535 232.014-22.3125 232.105-22.2305 233.18-21.4193 234.069-20.4577 234.771-19.3457 234.826-19.2637 234.853-19.1862 234.853-19.1133 234.853-19.0221 234.798-18.931 234.689-18.8398L233.568-17.9785C233.486-17.9147 233.413-17.8828 233.349-17.8828 233.258-17.8828 233.171-17.9421 233.089-18.0605 232.305-19.3092 231.371-20.3802 230.287-21.2734ZM220.156-17.5C221.313-17.7096 222.639-18.0241 224.134-18.4434 224.189-18.4616 224.239-18.4707 224.285-18.4707 224.458-18.4707 224.553-18.3704 224.572-18.1699 224.681-17.4225 224.749-16.7526 224.777-16.1602 224.777-16.1146 224.777-16.0736 224.777-16.0371 224.777-15.8275 224.635-15.6908 224.353-15.627 222.749-15.1803 221.126-14.8249 219.486-14.5605 217.635-8.52669 215.926-3.47721 214.359 0.587891 214.277 0.806641 214.163 0.916016 214.017 0.916016 213.962 0.916016 213.871 0.897786 213.744 0.861328 212.786 0.478516 212.039 0.132161 211.501-0.177734 211.328-0.277995 211.242-0.410156 211.242-0.574219 211.242-0.628906 211.251-0.683594 211.269-0.738281 213.229-5.22266 214.846-9.64323 216.122-14 214.145-13.7904 212.513-13.6855 211.228-13.6855 210.882-13.6855 210.686-13.8359 210.64-14.1367 210.54-14.6289 210.408-15.4811 210.244-16.6934 210.635-16.6296 211.328-16.5977 212.322-16.5977 213.789-16.5977 215.298-16.6934 216.847-16.8848 217.066-17.7415 217.303-18.9082 217.558-20.3848 217.667-21.2233 217.722-22.0801 217.722-22.9551 219.417-22.6999 220.589-22.4401 221.236-22.1758 221.445-22.1029 221.55-21.9525 221.55-21.7246 221.55-21.5605 221.505-21.4102 221.413-21.2734 221.058-20.6628 220.862-20.2936 220.826-20.166 220.725-19.8014 220.598-19.2865 220.443-18.6211 220.315-18.0924 220.219-17.7188 220.156-17.5ZM220.662-4.64844C221.746-4.93099 222.539-5.07227 223.04-5.07227 223.296-5.07227 223.437-4.9401 223.464-4.67578 223.574-3.6276 224.029-2.90755 224.831-2.51562 225.469-2.19661 226.44-2.03711 227.744-2.03711 228.792-2.03711 230.359-2.16927 232.447-2.43359 232.483-2.44271 232.515-2.44727 232.542-2.44727 232.688-2.44727 232.77-2.36068 232.788-2.1875 232.934-1.21224 233.007-0.396484 233.007 0.259766 233.016 0.323568 233.021 0.369141 233.021 0.396484 233.021 0.578776 232.87 0.679036 232.57 0.697266 231.166 0.906901 229.867 1.01172 228.673 1.01172 226.759 1.01172 225.273 0.852214 224.216 0.533203 223.277 0.250651 222.512-0.195964 221.919-0.806641 221.145-1.59049 220.725-2.87109 220.662-4.64844ZM222.849-9.93945C222.767-11.2611 222.726-12.1087 222.726-12.4824 222.726-12.6921 222.762-12.8288 222.835-12.8926 222.899-12.9564 223.031-13.0065 223.232-13.043 225.31-13.4714 227.128-13.6855 228.687-13.6855 229.781-13.6855 230.874-13.5944 231.968-13.4121 232.187-13.3757 232.319-13.3346 232.365-13.2891 232.419-13.2435 232.447-13.1432 232.447-12.9883 232.474-12.6055 232.488-12.1771 232.488-11.7031 232.488-11.4206 232.483-11.1061 232.474-10.7598 232.474-10.4043 232.365-10.2266 232.146-10.2266 232.082-10.2266 232.014-10.2357 231.941-10.2539 230.82-10.4727 229.662-10.582 228.468-10.582 226.864-10.582 224.991-10.3678 222.849-9.93945ZM246.267-22.2031C247.798-22.2031 249.024-22.0892 249.944-21.8613 250.282-21.7793 250.45-21.6335 250.45-21.4238L250.245-20.248C250.245-20.0658 250.291-19.4368 250.382-18.3613 250.601-16.6842 250.901-15.0801 251.284-13.5488 251.84-13.8496 252.524-14.2142 253.335-14.6426 254.265-15.1439 254.907-15.4902 255.263-15.6816 256.165-16.2103 256.808-16.7116 257.19-17.1855 258.056-16.2923 258.74-15.4173 259.241-14.5605 259.369-14.36 259.433-14.1641 259.433-13.9727 259.433-13.6536 259.246-13.4668 258.872-13.4121 258.17-13.2936 257.272-13.0111 256.179-12.5645 253.426-11.4434 251.234-10.3542 249.603-9.29688 247.397-7.84766 246.294-6.4349 246.294-5.05859 246.294-4.17448 246.681-3.55013 247.456-3.18555 248.158-2.86654 249.256-2.70703 250.751-2.70703 254.078-2.70703 256.926-2.92578 259.296-3.36328 259.369-3.3724 259.428-3.37695 259.474-3.37695 259.647-3.37695 259.756-3.25846 259.802-3.02148 259.911-2.41992 260.002-1.54948 260.075-0.410156 260.103-0.127604 259.934 0.0273438 259.569 0.0546875 257.446 0.33724 254.666 0.478516 251.23 0.478516 245.834 0.478516 243.136-1.3125 243.136-4.89453 243.136-6.45312 243.678-7.86589 244.763-9.13281 245.565-10.0807 246.795-11.0788 248.454-12.127 247.807-14.2051 247.324-16.4792 247.005-18.9492 246.804-20.444 246.558-21.5286 246.267-22.2031ZM286.733-22.2031 290.616-22.2578C290.771-22.2578 290.862-22.2396 290.889-22.2031 290.917-22.1667 290.93-22.0801 290.93-21.9434L290.876-18.9902 290.876-12.9883 290.93-10.0352C290.93-9.88021 290.914-9.7845 290.882-9.74805 290.851-9.71159 290.762-9.69336 290.616-9.69336L286.733-9.74805 275.973-9.74805 272.09-9.69336C271.936-9.69336 271.844-9.71615 271.817-9.76172 271.79-9.79818 271.776-9.88932 271.776-10.0352L271.831-12.9883 271.831-18.9902 271.776-21.9434C271.776-22.0983 271.794-22.1895 271.831-22.2168 271.867-22.2441 271.954-22.2578 272.09-22.2578L275.973-22.2031ZM287.991-12.127 287.991-14.8613 282.645-14.8613 282.645-12.127ZM287.991-19.7695 282.645-19.7695 282.645-17.1035 287.991-17.1035ZM274.715-12.127 279.815-12.127 279.815-14.8613 274.715-14.8613ZM274.715-17.1035 279.815-17.1035 279.815-19.7695 274.715-19.7695ZM285.721-4.42969C286.277-4.11068 286.997-3.82812 287.882-3.58203 288.191-3.5 288.378-3.42708 288.442-3.36328 288.524-3.29948 288.565-3.1901 288.565-3.03516 288.565-2.95312 288.556-2.81641 288.538-2.625 288.283-0.802083 287.731 0.355469 286.883 0.847656 286.337 1.15755 285.571 1.36719 284.587 1.47656 283.821 1.55859 282.7 1.59961 281.223 1.59961 278.826 1.59961 277.268 1.38542 276.548 0.957031 275.891 0.528646 275.563-0.264323 275.563-1.42188L275.563-5.55078C275.563-6.41667 275.518-7.18685 275.426-7.86133 276.21-7.86133 277.163-7.80664 278.284-7.69727 278.621-7.65169 278.79-7.54232 278.79-7.36914 278.79-7.21419 278.744-7.05469 278.653-6.89062 278.534-6.66276 278.475-6.26172 278.475-5.6875L278.475-2.51562C278.475-1.91406 278.617-1.53125 278.899-1.36719 279.255-1.16667 280.102-1.06641 281.442-1.06641 283.311-1.06641 284.486-1.25326 284.969-1.62695 285.443-1.99154 285.694-2.92578 285.721-4.42969ZM273.54-6.52148C273.786-6.44857 273.909-6.35286 273.909-6.23438 273.909-6.1888 273.9-6.13411 273.882-6.07031 273.207-3.71875 272.282-1.66797 271.106 0.0820312 271.033 0.209635 270.96 0.273438 270.887 0.273438 270.833 0.273438 270.728 0.227865 270.573 0.136719L268.755-1.03906C268.545-1.16667 268.44-1.27604 268.44-1.36719 268.44-1.43099 268.481-1.51758 268.563-1.62695 269.848-3.43164 270.723-5.22266 271.188-7 271.234-7.16406 271.288-7.24609 271.352-7.24609 271.389-7.24609 271.493-7.20964 271.667-7.13672ZM290.821-7.39648C292.097-5.73763 293.191-3.96484 294.102-2.07812 294.139-1.98698 294.157-1.91406 294.157-1.85938 294.157-1.75 294.061-1.64518 293.87-1.54492L291.997-0.533203C291.814-0.442057 291.691-0.396484 291.628-0.396484 291.555-0.396484 291.491-0.460286 291.436-0.587891 290.716-2.37435 289.668-4.21094 288.292-6.09766 288.237-6.19792 288.21-6.26628 288.21-6.30273 288.21-6.35742 288.305-6.43945 288.497-6.54883L290.26-7.47852C290.388-7.55143 290.488-7.58789 290.561-7.58789 290.634-7.58789 290.721-7.52409 290.821-7.39648ZM281.606-9.35156C282.654-8.57682 283.784-7.46484 284.997-6.01562 285.061-5.93359 285.092-5.86068 285.092-5.79688 285.092-5.71484 285.006-5.60091 284.833-5.45508L283.288-4.22461C283.124-4.10612 283.01-4.04688 282.946-4.04688 282.882-4.04688 282.809-4.097 282.727-4.19727 281.87-5.48242 280.804-6.67643 279.528-7.7793 279.437-7.87956 279.391-7.96615 279.391-8.03906 279.391-8.12109 279.469-8.21224 279.624-8.3125L281.018-9.35156C281.137-9.44271 281.237-9.48828 281.319-9.48828 281.392-9.48828 281.488-9.44271 281.606-9.35156ZM300.348-19.4551C301.87-19.2728 303.055-18.9674 303.903-18.5391 304.203-18.4023 304.354-18.2337 304.354-18.0332 304.354-17.8691 304.276-17.6094 304.121-17.2539 303.957-16.7435 303.875-15.8275 303.875-14.5059 303.875-12.1816 304.044-10.0534 304.381-8.12109 304.864-5.3776 305.63-4.00586 306.678-4.00586 307.152-4.00586 307.603-4.33398 308.032-4.99023 308.414-5.57357 308.856-6.54427 309.358-7.90234 309.832-7.15495 310.429-6.4349 311.149-5.74219 311.34-5.56901 311.436-5.36849 311.436-5.14062 311.436-5.01302 311.408-4.86719 311.354-4.70312 310.789-3.19922 310.05-2.06901 309.139-1.3125 308.364-0.665365 307.517-0.341797 306.596-0.341797 305.356-0.341797 304.24-1.05273 303.246-2.47461 302.326-3.80534 301.697-5.52799 301.36-7.64258 300.913-10.304 300.69-13.0202 300.69-15.791 300.69-17.2038 300.576-18.4251 300.348-19.4551ZM314.69-15.4902C315.61-16.0736 316.344-16.502 316.891-16.7754 317.046-16.8483 317.151-16.8848 317.205-16.8848 317.297-16.8848 317.397-16.8301 317.506-16.7207 318.882-15.5267 320.09-13.9772 321.129-12.0723 322.05-10.4043 322.67-8.75911 322.989-7.13672 323.007-7.07292 323.016-7.01823 323.016-6.97266 323.016-6.80859 322.906-6.6582 322.688-6.52148 321.867-5.99284 321.138-5.61914 320.5-5.40039 320.409-5.37305 320.327-5.35938 320.254-5.35938 320.072-5.35938 319.958-5.47786 319.912-5.71484 319.393-7.91146 318.705-9.78906 317.848-11.3477 317.046-12.7969 315.993-14.1777 314.69-15.4902ZM339.625-6.15234C339.552-7.90234 339.506-9.01432 339.488-9.48828 338.704-9.47005 337.998-9.46094 337.369-9.46094 336.057-9.46094 334.84-9.51107 333.719-9.61133 333.445-9.61133 333.295-9.76628 333.267-10.0762 333.158-10.696 333.103-11.4889 333.103-12.4551 334.534-12.2819 336.038-12.1953 337.615-12.1953 338.198-12.1953 338.795-12.209 339.406-12.2363L339.351-15.4492C338.239-15.4128 337.301-15.3945 336.535-15.3945 335.077-15.3945 333.782-15.4583 332.652-15.5859 332.361-15.5859 332.201-15.7181 332.174-15.9824 332.092-16.666 332.028-17.5046 331.982-18.498 333.605-18.3158 336.052-18.2246 339.324-18.2246 339.324-18.7624 339.306-19.6693 339.269-20.9453 339.206-21.6745 339.092-22.2988 338.928-22.8184 340.45-22.7272 341.626-22.5586 342.455-22.3125 342.719-22.2305 342.851-22.0527 342.851-21.7793 342.851-21.6699 342.824-21.5697 342.769-21.4785 342.505-20.959 342.364-20.5078 342.346-20.125 342.336-19.9154 342.327-19.6328 342.318-19.2773 342.309-18.8672 342.3-18.5527 342.291-18.334 344.396-18.498 346.438-18.7806 348.416-19.1816 348.498-19.1999 348.566-19.209 348.621-19.209 348.785-19.209 348.876-19.0859 348.894-18.8398 348.986-18.1836 349.031-17.5046 349.031-16.8027 349.031-16.5293 348.931-16.3789 348.73-16.3516 346.698-16.0052 344.542-15.7637 342.264-15.627L342.291-12.4551C343.139-12.5098 344.966-12.7513 347.773-13.1797 347.874-13.207 347.951-13.2207 348.006-13.2207 348.133-13.2207 348.206-13.1341 348.225-12.9609 348.279-11.8945 348.307-11.1289 348.307-10.6641 348.307-10.4271 348.165-10.2949 347.883-10.2676 345.923-9.94857 344.096-9.72526 342.4-9.59766 342.482-7.71094 342.546-6.39388 342.592-5.64648 345.29-4.89909 347.764-3.77344 350.016-2.26953 350.18-2.1237 350.262-1.99154 350.262-1.87305 350.262-1.81836 350.243-1.72721 350.207-1.59961 349.924-0.815755 349.514-0.123047 348.976 0.478516 348.876 0.624349 348.758 0.697266 348.621 0.697266 348.503 0.697266 348.398 0.651693 348.307 0.560547 346.693-0.715495 344.838-1.77734 342.742-2.625 342.724-1.03906 342.186 0.0911459 341.129 0.765625 340.226 1.33984 338.868 1.62695 337.055 1.62695 335.141 1.62695 333.669 1.2168 332.639 0.396484 331.773-0.296224 331.34-1.18945 331.34-2.2832 331.34-3.52279 331.919-4.51628 333.076-5.26367 334.097-5.92904 335.387-6.26172 336.945-6.26172 337.857-6.26172 338.75-6.22526 339.625-6.15234ZM339.68-3.5C338.759-3.71875 337.893-3.82812 337.082-3.82812 335.068-3.82812 334.06-3.33594 334.06-2.35156 334.06-1.51302 334.986-1.09375 336.836-1.09375 338.094-1.09375 338.941-1.37174 339.379-1.92773 339.579-2.21029 339.68-2.73438 339.68-3.5ZM370.398-18.334C370.389-18.6074 370.38-19.0358 370.371-19.6191 370.362-20.0566 370.352-20.403 370.343-20.6582 370.289-21.36 370.175-22.0436 370.001-22.709 371.369-22.6178 372.462-22.4857 373.283-22.3125 373.802-22.2214 374.062-22.0436 374.062-21.7793 374.062-21.6335 373.98-21.4193 373.816-21.1367 373.716-20.9453 373.638-20.6764 373.584-20.3301 373.574-20.2116 373.556-19.6146 373.529-18.5391 376.035-18.6302 378.902-18.6758 382.128-18.6758 382.302-18.6758 382.411-18.6484 382.457-18.5938 382.502-18.5391 382.529-18.4251 382.539-18.252 382.557-17.8874 382.566-17.5319 382.566-17.1855 382.566-16.8392 382.557-16.4837 382.539-16.1191 382.539-15.873 382.42-15.75 382.183-15.75 382.147-15.75 382.11-15.75 382.074-15.75 380.378-15.8047 378.578-15.832 376.673-15.832 375.525-15.832 374.477-15.8275 373.529-15.8184 373.529-13.485 373.538-11.7487 373.556-10.6094 373.839-9.85286 373.98-8.92773 373.98-7.83398 373.98-3.98763 372.317-0.97526 368.99 1.20312 368.443 1.55859 368.078 1.73633 367.896 1.73633 367.695 1.73633 367.417 1.59505 367.062 1.3125 366.47 0.820312 365.759 0.451172 364.929 0.205078 366.634-0.551432 368.001-1.54036 369.031-2.76172 369.888-3.76432 370.434-4.83073 370.671-5.96094 370.161-5.21354 369.286-4.83984 368.046-4.83984 366.825-4.83984 365.854-5.26823 365.134-6.125 364.478-6.89974 364.15-7.90234 364.15-9.13281 364.15-10.4818 364.624-11.5527 365.572-12.3457 366.356-13.002 367.29-13.3301 368.375-13.3301 369.368-13.3301 370.079-13.1432 370.507-12.7695L370.48-15.627C366.433-15.3991 363.202-15.1165 360.787-14.7793 360.568-14.752 360.29-14.6836 359.953-14.5742 359.707-14.4922 359.547-14.4512 359.474-14.4512 359.237-14.4512 359.078-14.5833 358.996-14.8477 358.804-15.3307 358.572-16.2695 358.298-17.6641 358.581-17.6367 358.877-17.623 359.187-17.623 359.47-17.623 360.313-17.6732 361.716-17.7734 363.22-17.901 366.114-18.0879 370.398-18.334ZM368.607-11.1426C368.078-11.1426 367.636-10.974 367.281-10.6367 366.925-10.2995 366.748-9.86198 366.748-9.32422 366.748-8.6862 366.944-8.18945 367.335-7.83398 367.654-7.55143 368.056-7.41016 368.539-7.41016 369.131-7.41016 369.605-7.59245 369.96-7.95703 370.289-8.30338 370.453-8.76823 370.453-9.35156 370.453-9.95312 370.261-10.4134 369.878-10.7324 369.559-11.0059 369.136-11.1426 368.607-11.1426ZM395.538-15.6543C395.821-16.666 396.099-17.8418 396.372-19.1816 396.564-20.3027 396.659-21.3372 396.659-22.2852 398.027-21.9935 399.143-21.6882 400.009-21.3691 400.31-21.278 400.46-21.0911 400.46-20.8086 400.46-20.6536 400.396-20.5124 400.269-20.3848 400.041-20.0931 399.854-19.7376 399.708-19.3184 399.571-18.8991 399.394-18.3066 399.175-17.541 398.965-16.8392 398.806-16.3105 398.696-15.9551 399.38-16.0371 400.109-16.0781 400.884-16.0781 402.297-16.0781 403.345-15.5768 404.028-14.5742 404.639-13.6992 404.944-12.4733 404.944-10.8965 404.944-9.08268 404.794-7.31901 404.493-5.60547 404.22-4.05599 403.864-2.82096 403.427-1.90039 402.634-0.150391 401.376 0.724609 399.653 0.724609 398.45 0.724609 397.525 0.619792 396.878 0.410156 396.541 0.300781 396.372 0.0410156 396.372-0.369141 396.272-1.51758 396.099-2.38346 395.853-2.9668 396.937-2.55664 397.963-2.35156 398.929-2.35156 399.421-2.35156 399.799-2.47005 400.064-2.70703 400.291-2.92578 400.51-3.30404 400.72-3.8418 401.449-5.77409 401.814-8.08463 401.814-10.7734 401.814-11.8398 401.686-12.5508 401.431-12.9062 401.194-13.2253 400.788-13.3848 400.214-13.3848 399.594-13.3848 398.81-13.321 397.862-13.1934 396.03-7.86133 394.153-3.47266 392.23-0.0273438 392.129 0.200521 391.993 0.314453 391.819 0.314453 391.728 0.314453 391.624 0.282552 391.505 0.21875 390.639-0.200521 389.992-0.610677 389.564-1.01172 389.418-1.15755 389.345-1.29427 389.345-1.42188 389.345-1.53125 389.381-1.63607 389.454-1.73633 391.669-5.57357 393.378-9.23307 394.581-12.7148 393.943-12.6146 393.032-12.4551 391.847-12.2363 391.346-12.1361 390.831-11.9857 390.302-11.7852 390.174-11.7396 390.06-11.7168 389.96-11.7168 389.696-11.7168 389.509-11.8626 389.4-12.1543 389.135-12.847 388.848-13.8086 388.538-15.0391 389.568-15.0391 390.799-15.1029 392.23-15.2305 393.241-15.3307 394.344-15.472 395.538-15.6543ZM405.505-15.873C406.553-16.584 407.31-17.0625 407.775-17.3086 407.838-17.3451 407.902-17.3633 407.966-17.3633 408.066-17.3633 408.18-17.2995 408.308-17.1719 410.431-15.1758 411.981-12.9062 412.956-10.3633 413.002-10.263 413.025-10.181 413.025-10.1172 413.025-10.0078 412.965-9.90299 412.847-9.80273 412.318-9.30143 411.616-8.83659 410.741-8.4082 410.641-8.35352 410.545-8.32617 410.454-8.32617 410.272-8.32617 410.153-8.42643 410.099-8.62695 408.941-11.6621 407.41-14.0775 405.505-15.873Z" fill="#F2F2F2" transform="translate(27.9555 50)"/></g></g><text fill="#F2F2F2" font-family="Yu Gothic,Yu Gothic_MSFontService,sans-serif" font-weight="700" font-size="28" transform="translate(449.956 91)">の居場所は必要だと思いますか</text></g><g clip-path="url(#clip35)"><rect x="379" y="675" width="14" height="14" fill="url(#fill36)"/></g><g clip-path="url(#clip37)"><text fill="#D9D9D9" font-family="Yu Gothic,Yu Gothic_MSFontService,sans-serif" font-weight="700" font-size="24" transform="translate(399.094 688)">いる</text></g><g clip-path="url(#clip38)"><rect x="477" y="675" width="14" height="14" fill="url(#fill39)"/></g><g clip-path="url(#clip40)"><text fill="#D9D9D9" font-family="Yu Gothic,Yu Gothic_MSFontService,sans-serif" font-weight="700" font-size="24" transform="translate(497.069 688)">いらない</text></g><g clip-path="url(#clip41)"><rect x="623" y="675" width="14" height="14" fill="url(#fill42)"/></g><g clip-path="url(#clip43)"><text fill="#D9D9D9" font-family="Yu Gothic,Yu Gothic_MSFontService,sans-serif" font-weight="700" font-size="24" transform="translate(643.043 688)">どちらともいえない</text></g></g></svg>